<svg width="30" height="30" viewBox="0 0 30 30" fill="none" xmlns="http://www.w3.org/2000/svg">
<path d="M25.0592 20.5911C23.5545 18.7495 22.4922 17.812 22.4922 12.7348C22.4922 8.08541 20.118 6.42897 18.1639 5.62447C17.9043 5.51783 17.66 5.27291 17.5809 5.00631C17.2381 3.83971 16.2772 2.81197 14.9999 2.81197C13.7225 2.81197 12.761 3.84029 12.4217 5.00748C12.3426 5.27701 12.0983 5.51783 11.8387 5.62447C9.88228 6.43014 7.51041 8.08072 7.51041 12.7348C7.50748 17.812 6.44517 18.7495 4.94049 20.5911C4.31705 21.354 4.86314 22.4995 5.95357 22.4995H24.052C25.1366 22.4995 25.6791 21.3504 25.0592 20.5911Z" stroke="white" stroke-width="2" stroke-linecap="round" stroke-linejoin="round"/>
<path d="M18.7499 22.4985V23.436C18.7499 24.4306 18.3548 25.3844 17.6515 26.0877C16.9483 26.7909 15.9944 27.186 14.9999 27.186C14.0053 27.186 13.0515 26.7909 12.3482 26.0877C11.645 25.3844 11.2499 24.4306 11.2499 23.436V22.4985" stroke="white" stroke-width="2" stroke-linecap="round" stroke-linejoin="round"/>
</svg>
