<svg width="18" height="22" viewBox="0 0 18 22" fill="none" xmlns="http://www.w3.org/2000/svg">
<g clip-path="url(#clip0_2565_8040)">
<path d="M0.945736 6.28372C-0.000490596 6.17363 -0.00483105 6.17363 -0.000490559 5.20926C0.00384993 4.78652 -0.022193 4.35498 0.0646167 3.94545C0.259939 3.02952 1.13672 2.34697 2.0786 2.33376C3.17241 2.32055 4.26621 2.33376 5.36001 2.33376C5.52929 2.33376 5.69857 2.33376 5.92427 2.33376C5.92427 1.91543 5.90691 1.54994 5.92861 1.18444C5.96768 0.453458 6.41041 0.0175095 7.13093 0.00870248C8.38099 -0.00450809 9.63105 -0.00450809 10.8811 0.00870248C11.5712 0.0175095 12.014 0.453458 12.0574 1.15802C12.0791 1.52351 12.0617 1.89341 12.0617 2.33376C12.8647 2.33376 13.62 2.33376 14.3752 2.33376C14.8787 2.33376 15.3822 2.32496 15.8857 2.33376C17.0055 2.35138 17.8997 3.20566 17.9735 4.34177C17.9995 4.76451 17.9648 5.18725 17.9952 5.60998C18.0256 6.08116 17.8606 6.31455 17.3701 6.24409C17.2877 6.23088 17.1965 6.2529 17.0533 6.2617C16.9361 7.23048 16.8189 8.19925 16.706 9.16803C16.4066 11.7529 16.1071 14.3378 15.8076 16.9182C15.7208 17.6536 15.6296 18.3846 15.5602 19.12C15.4126 20.7185 14.1278 21.9735 12.5479 21.9867C10.1693 22.0087 7.79068 22.0087 5.4121 21.9867C3.8582 21.9691 2.59946 20.7141 2.42584 19.1464C2.10465 16.2445 1.75307 13.3514 1.41885 10.4539C1.25825 9.07115 1.10633 7.69285 0.945736 6.28372ZM1.62285 6.26611C1.76609 7.53432 1.90064 8.77171 2.04388 10.0091C2.3781 12.9242 2.73836 15.835 3.05087 18.7501C3.22883 20.4058 4.13165 21.2953 5.76802 21.2953C7.90354 21.2997 10.0347 21.2997 12.1702 21.2953C13.876 21.2953 14.7745 20.4146 14.9438 18.6929C15.1391 16.7157 15.3952 14.7473 15.6209 12.7745C15.8727 10.6124 16.1201 8.45026 16.3718 6.2573C11.4454 6.26611 6.54062 6.26611 1.62285 6.26611ZM0.685306 5.53512C6.24981 5.53512 11.7753 5.53512 17.2964 5.53512C17.5264 3.61519 16.858 2.95026 15.0827 2.97668C11.0243 3.03392 6.96165 2.99429 2.89895 2.99429C1.0282 2.99429 0.594156 3.45226 0.659263 5.34137C0.659263 5.39421 0.672285 5.44705 0.685306 5.53512ZM6.64045 2.29853C8.22907 2.29853 9.79599 2.29853 11.3499 2.29853C11.3672 2.23248 11.3846 2.19725 11.3846 2.16643C11.3889 1.91983 11.3933 1.67323 11.3889 1.43104C11.3846 0.814547 11.2804 0.704459 10.6554 0.700056C9.77429 0.695652 8.88883 0.700056 8.00771 0.700056C6.51892 0.700056 6.51892 0.700056 6.61007 2.22367C6.61007 2.22808 6.61875 2.24569 6.64045 2.29853Z" fill="#EBA900"/>
<path d="M6.06342 16.8963C6.08512 17.1958 6.15457 17.4996 6.1155 17.7902C6.0938 17.9664 5.90282 18.1205 5.78997 18.2834C5.67711 18.1337 5.47311 17.9884 5.46443 17.8299C5.33856 15.954 5.23873 14.0737 5.13889 12.1934C5.09549 11.3875 5.0434 10.5773 5.03906 9.77142C5.03906 9.61289 5.23872 9.44996 5.34724 9.28703C5.45575 9.43675 5.65107 9.57767 5.65975 9.73179C5.81601 12.1185 5.94622 14.5052 6.08512 16.8919C6.08078 16.8963 6.0721 16.8963 6.06342 16.8963Z" fill="#EBA900"/>
<path d="M12.0756 13.7742C12.1537 12.4576 12.2275 11.1409 12.3056 9.82425C12.3187 9.58206 12.2883 9.28702 12.6485 9.29583C13.0131 9.30464 12.9697 9.59527 12.9567 9.84187C12.8178 12.5104 12.6789 15.1789 12.5183 17.8475C12.5096 18.0016 12.297 18.1381 12.1798 18.2834C12.0713 18.1161 11.8629 17.9399 11.8673 17.777C11.915 16.4427 12.0018 15.1085 12.0756 13.7742Z" fill="#EBA900"/>
<path d="M9.31869 13.8447C9.31869 15.1305 9.31869 16.4163 9.31869 17.7022C9.31869 17.9664 9.35342 18.3054 8.9758 18.257C8.85426 18.2394 8.68498 17.9003 8.68064 17.711C8.66328 15.0865 8.66762 12.462 8.66762 9.84187C8.66762 9.59967 8.62422 9.30464 8.98882 9.30024C9.35342 9.29583 9.31869 9.58646 9.31869 9.83306C9.31869 11.1673 9.31869 12.506 9.31869 13.8447Z" fill="#EBA900"/>
</g>
<defs>
<clipPath id="clip0_2565_8040">
<rect width="18" height="22" fill="white"/>
</clipPath>
</defs>
</svg>
