<svg width="20" height="13" viewBox="0 0 20 13" fill="none" xmlns="http://www.w3.org/2000/svg">
<path d="M2.66782 0.165604C2.24027 0.165604 1.89209 0.496814 1.89209 0.905956V1.17872H5.47888V0.905956C5.47888 0.496814 5.1307 0.165604 4.70059 0.165604H2.66782Z" fill="#979C9E"/>
<path d="M7.87507 5.35051C7.3272 5.87168 6.98926 6.59011 6.98926 7.38404C6.98926 8.18041 7.3272 8.89641 7.87507 9.41758C8.42295 9.93875 9.17564 10.2602 10.0128 10.2602C10.85 10.2602 11.6027 9.93875 12.1505 9.41758C12.6984 8.89641 13.0364 8.18041 13.0364 7.38404C13.0364 6.59011 12.6959 5.87168 12.1505 5.35051C11.6027 4.82934 10.85 4.50787 10.0128 4.50787C9.17564 4.50787 8.42295 4.82934 7.87507 5.35051Z" fill="#979C9E"/>
<path d="M13.7762 1.77051C13.5305 0.7574 12.5781 0 11.4388 0H8.56119C7.42191 0 6.46953 0.7574 6.22376 1.77051H1.63082C0.729647 1.77051 0 2.46459 0 3.31941V11.4511C0 12.3084 0.729647 13.0024 1.63082 13.0024H18.3717C19.2704 13.0024 20 12.3084 20 11.4511V3.31941C20 2.46459 19.2704 1.77051 18.3717 1.77051H13.7762V1.77051ZM10.0128 10.8812C7.98259 10.8812 6.33897 9.31772 6.33897 7.38647C6.33897 5.45523 7.98259 3.88928 10.0128 3.88928C12.043 3.88928 13.6892 5.45523 13.6892 7.38647C13.6892 9.31772 12.043 10.8812 10.0128 10.8812ZM17.5858 3.39977H15.873C15.7015 3.39977 15.5607 3.26827 15.5607 3.10266C15.5607 2.93949 15.7015 2.80798 15.873 2.80798H17.5858C17.7573 2.80798 17.8981 2.93949 17.8981 3.10266C17.8981 3.26827 17.7599 3.39977 17.5858 3.39977Z" fill="#979C9E"/>
</svg>
