<svg width="40" height="28" viewBox="0 0 40 28" fill="none" xmlns="http://www.w3.org/2000/svg">
<g clip-path="url(#clip0_8_4919)">
<path d="M0 4.22642C0.0599251 3.93291 0.0898876 3.66876 0.179775 3.37526C0.659176 1.61426 2.21723 0.264151 4.04494 0.0587002C4.31461 0.0293501 4.58427 0 4.88389 0C13.7828 0 22.7116 0 31.6105 0C34.0075 0 35.8951 1.64361 36.3146 3.58071C36.4644 4.25577 36.4345 4.96017 36.4345 5.63522C36.4345 8.42348 36.4345 11.2117 36.4345 14C36.4345 14.6751 36.4345 15.3208 36.4345 15.9958C35.8352 15.9078 35.2659 15.8197 34.6367 15.7317C34.6367 15.673 34.6367 15.5849 34.6367 15.4969C34.6367 11.8868 34.6367 8.30608 34.6367 4.69602C34.6367 3.16981 33.618 1.99581 32.1199 1.76101C31.9101 1.73166 31.7004 1.73166 31.5206 1.73166C23.4906 1.73166 15.4906 1.73166 7.46067 1.73166C6.50187 1.73166 5.54307 1.73166 4.58427 1.73166C3.26592 1.73166 1.97753 2.87631 1.85768 4.13836C1.76779 5.07757 1.79775 6.01677 1.79775 6.92662C1.79775 9.71488 1.79775 12.5031 1.79775 15.2621C1.79775 16.9644 1.76779 18.6667 1.79775 20.3396C1.82772 21.8952 3.23596 23.0985 4.73408 23.0692C6.98127 23.0398 9.22846 23.0692 11.4757 23.0692C16.7191 23.0692 21.9625 23.0692 27.206 23.0692C27.2959 23.0692 27.3858 23.0692 27.4757 23.0692C27.5955 23.6562 27.7154 24.2138 27.8652 24.8302C27.8052 24.8302 27.7154 24.8302 27.6554 24.8302C20.015 24.8302 12.4045 24.8302 4.76405 24.8302C2.397 24.8302 0.479401 23.2159 0.0599251 20.9266C0.0299625 20.8386 0.0299625 20.7505 0 20.6331C0 15.174 0 9.68553 0 4.22642Z" fill="#EBA900"/>
<path d="M39.9999 22.9811C39.91 23.3627 39.8801 23.7736 39.7302 24.1551C39.0411 26.2096 37.6029 27.501 35.4156 27.9119C32.6591 28.4109 29.9624 26.8553 29.1535 24.2138C28.5542 22.3061 28.9138 20.5744 30.2321 19.0482C31.1909 17.9329 32.4194 17.3166 33.8875 17.1698C36.8538 16.8763 39.3108 18.8134 39.8801 21.4256C39.94 21.6897 39.9699 21.9245 39.9999 22.1887C39.9999 22.4235 39.9999 22.6876 39.9999 22.9811ZM33.558 23.5975C33.4381 23.4801 33.3482 23.4214 33.2883 23.3333C32.7789 22.8637 32.2696 22.3648 31.7602 21.8952C31.4306 21.5723 30.9812 21.5723 30.6815 21.8952C30.3819 22.1887 30.4119 22.6583 30.7415 22.9518C31.4905 23.6562 32.2396 24.3606 32.9587 25.065C33.3183 25.3878 33.7377 25.3878 34.0673 25.065C34.307 24.8595 34.5168 24.6247 34.7565 24.4193C35.895 23.3333 37.0336 22.218 38.1722 21.1321C38.5018 20.8092 38.5018 20.369 38.2021 20.0755C37.9025 19.782 37.4531 19.782 37.1235 20.1048C36.4044 20.7799 35.7153 21.4549 34.9962 22.1593C34.5168 22.5996 34.0374 23.0985 33.558 23.5975Z" fill="#EBA900"/>
<path d="M26.0373 10.478C24.4194 10.478 22.8014 10.478 21.1834 10.478C20.4943 10.478 20.0448 9.83229 20.3444 9.24529C20.4943 8.92244 20.7639 8.74634 21.1534 8.74634C22.1422 8.74634 23.131 8.74634 24.1197 8.74634C26.0673 8.74634 28.0448 8.74634 29.9924 8.74634C30.292 8.74634 30.6216 8.74634 30.9212 8.74634C31.4605 8.74634 31.8501 9.12789 31.8501 9.62684C31.8501 10.0964 31.4306 10.5073 30.9212 10.5073C29.3032 10.478 27.6853 10.478 26.0373 10.478Z" fill="#EBA900"/>
<path d="M26.0676 4.43188C27.6855 4.43188 29.2736 4.43188 30.8915 4.43188C31.4009 4.43188 31.7305 4.69603 31.8204 5.13628C31.9103 5.57653 31.6406 6.01678 31.1912 6.13418C31.0713 6.16353 30.9515 6.16353 30.8616 6.16353C27.6556 6.16353 24.4796 6.16353 21.2736 6.16353C20.7342 6.16353 20.3747 5.92873 20.2848 5.48848C20.1649 4.90148 20.5545 4.40253 21.1837 4.40253C22.7118 4.40253 24.2099 4.40253 25.738 4.40253C25.8578 4.43188 25.9777 4.43188 26.0676 4.43188Z" fill="#EBA900"/>
<path d="M23.3107 14.7924C22.6216 14.7924 21.9325 14.7924 21.2134 14.7924C20.674 14.7924 20.3145 14.4989 20.2546 14C20.2246 13.5304 20.6141 13.0608 21.0935 13.0608C22.5916 13.0608 24.0898 13.0608 25.5579 13.0608C25.9774 13.0608 26.3369 13.413 26.3669 13.8532C26.3969 14.2641 26.1272 14.675 25.7077 14.7631C25.5879 14.7631 25.4381 14.7924 25.3182 14.7924C24.659 14.7924 23.9999 14.7924 23.3107 14.7924Z" fill="#EBA900"/>
<path d="M33.5581 23.5975C34.0375 23.0985 34.5169 22.5996 34.9963 22.13C35.6854 21.4549 36.4045 20.7505 37.1236 20.0755C37.4532 19.7526 37.9026 19.7526 38.2022 20.0461C38.5019 20.3396 38.4719 20.8092 38.1723 21.1027C37.0337 22.1887 35.8951 23.304 34.7566 24.3899C34.5169 24.5954 34.3071 24.8302 34.0674 25.0356C33.7079 25.3585 33.2884 25.3585 32.9588 25.0356C32.2097 24.3312 31.4607 23.6268 30.7416 22.9224C30.412 22.5996 30.412 22.1593 30.6816 21.8658C30.9813 21.5723 31.4307 21.5723 31.7603 21.8658C32.2697 22.3354 32.779 22.8344 33.2884 23.304C33.3483 23.392 33.4382 23.4507 33.5581 23.5975Z" fill="white"/>
<path d="M11.206 17.8742C9.61797 17.8742 8.02995 17.8742 6.44194 17.8742C6.41197 17.8742 6.35205 17.8742 6.32209 17.8742C6.14231 17.8742 6.02246 17.7568 6.02246 17.5807C6.02246 16.3774 6.38201 15.262 7.13108 14.2935C7.97003 13.2369 9.04868 12.5912 10.397 12.3857C12.9738 12.0042 15.3708 13.4717 16.1498 15.9078C16.2996 16.4361 16.3895 16.9644 16.3895 17.4927C16.3895 17.7568 16.2996 17.8742 16.03 17.8742C14.412 17.8742 12.794 17.8742 11.206 17.8742ZM15.8202 17.3166C15.7303 14.8218 13.6629 12.6792 10.8464 12.8847C8.23969 13.0608 6.62171 15.2033 6.59175 17.3166C9.64793 17.3166 12.7341 17.3166 15.8202 17.3166Z" fill="#EBA900"/>
<path d="M14.4421 8.39412C14.4421 10.1258 13.0039 11.5639 11.2062 11.5639C9.40842 11.5639 7.97021 10.1551 7.97021 8.39412C7.97021 6.66246 9.40842 5.2243 11.2062 5.2243C12.974 5.2243 14.4122 6.63311 14.4421 8.39412ZM11.2062 11.0063C12.6743 11.0063 13.8728 9.83227 13.8728 8.42347C13.8728 6.95596 12.7043 5.78196 11.2361 5.78196C9.738 5.78196 8.5395 6.95596 8.5395 8.39412C8.50954 9.83227 9.738 11.0063 11.2062 11.0063Z" fill="#EBA900"/>
<path d="M6.59157 17.4633H16.1197C16.1197 17.4633 15.7601 12.5325 11.3556 12.6792C6.47172 12.7673 6.59157 17.4633 6.59157 17.4633Z" fill="#EBA900"/>
<path d="M11.2062 11.0063C12.679 11.0063 13.8729 9.83677 13.8729 8.39411C13.8729 6.95146 12.679 5.78195 11.2062 5.78195C9.73346 5.78195 8.53955 6.95146 8.53955 8.39411C8.53955 9.83677 9.73346 11.0063 11.2062 11.0063Z" fill="#EBA900"/>
</g>
<defs>
<clipPath id="clip0_8_4919">
<rect width="40" height="28" fill="white"/>
</clipPath>
</defs>
</svg>
