<svg width="29" height="22" viewBox="0 0 29 22" fill="none" xmlns="http://www.w3.org/2000/svg">
<path d="M26.2122 1H1.84041C1.37627 1 1 1.37626 1 1.84041V19.657C1 20.1212 1.37627 20.4974 1.84041 20.4974H26.2122C26.6764 20.4974 27.0526 20.1212 27.0526 19.657V1.84041C27.0526 1.37626 26.6764 1 26.2122 1Z" stroke="#AEB2B4" stroke-width="2" stroke-linecap="round" stroke-linejoin="round"/>
<path d="M18.7998 18.6569H24.3633V20.4974H18.7998V18.6569ZM15.5727 6.5467C15.3697 6.34341 15.1287 6.1821 14.8633 6.07207C14.598 5.96205 14.3136 5.90546 14.0263 5.90546C13.7391 5.90546 13.4546 5.96205 13.1893 6.07207C12.924 6.1821 12.6829 6.34341 12.48 6.5467C12.2262 6.80177 12.039 7.11534 11.935 7.45978C11.8309 7.80422 11.8133 8.16898 11.8835 8.52188C11.9537 8.87478 12.1097 9.20495 12.3376 9.48342C12.5655 9.76181 12.8584 9.97987 13.1905 10.1184C13.5226 10.2568 13.8837 10.3115 14.2418 10.2776C14.6 10.2436 14.9444 10.122 15.2446 9.92361C15.5447 9.72513 15.7914 9.45587 15.9629 9.13956C16.1344 8.82325 16.2256 8.46969 16.2282 8.10982C16.2293 7.81716 16.1702 7.52732 16.0545 7.25839C15.9389 6.98947 15.7691 6.74726 15.5559 6.5467H15.5727ZM12.3455 12.0345H15.7071C16.3758 12.0345 17.0171 12.3002 17.4899 12.773C17.9628 13.2458 18.2284 13.8871 18.2284 14.5558V15.5727H9.82431V14.5558C9.82431 13.8871 10.0899 13.2458 10.5627 12.773C11.0356 12.3002 11.6768 12.0345 12.3455 12.0345ZM8.49643 8.62253C8.34018 8.46496 8.15432 8.33991 7.94945 8.25461C7.74466 8.16923 7.52494 8.12534 7.30306 8.12534C7.08118 8.12534 6.86154 8.16923 6.65667 8.25461C6.45188 8.33991 6.26593 8.46496 6.10968 8.62253C5.9161 8.81778 5.77338 9.05758 5.69397 9.32087C5.61464 9.58407 5.60112 9.86279 5.65455 10.1325C5.70799 10.4023 5.82673 10.6548 6.00048 10.8679C6.17424 11.0811 6.39761 11.2483 6.65102 11.355C6.90443 11.4618 7.18017 11.5047 7.45407 11.4799C7.7279 11.4553 7.9916 11.3638 8.22186 11.2136C8.45212 11.0633 8.64205 10.8588 8.7749 10.618C8.90774 10.3773 8.97952 10.1077 8.98392 9.83267C8.98408 9.60888 8.93961 9.38733 8.85298 9.18097C8.76644 8.9746 8.63948 8.78757 8.47967 8.63091L8.49643 8.62253Z" stroke="#AEB2B4" stroke-width="1.5" stroke-linecap="round" stroke-linejoin="round"/>
<path d="M10.11 13.3875C9.95304 13.216 9.7622 13.0789 9.54961 12.9848C9.33694 12.8908 9.10709 12.842 8.87459 12.8413H5.73151C5.28568 12.8413 4.85818 13.0184 4.54295 13.3336C4.22775 13.6488 4.05066 14.0763 4.05066 14.5222V15.5726H9.82426M18.2283 15.5726H23.9935V14.5222C23.9935 14.0763 23.8164 13.6488 23.5012 13.3336C23.186 13.0184 22.7584 12.8413 22.3127 12.8413H19.178C18.9455 12.842 18.7156 12.8908 18.503 12.9848C18.2903 13.0789 18.0995 13.216 17.9426 13.3875M21.943 8.6225C21.7867 8.46493 21.6008 8.33988 21.396 8.25458C21.1911 8.1692 20.9715 8.12531 20.7496 8.12531C20.5276 8.12531 20.308 8.1692 20.1031 8.25458C19.8983 8.33988 19.7124 8.46493 19.5562 8.6225C19.3625 8.81775 19.2198 9.05755 19.1405 9.32075C19.0611 9.58404 19.0476 9.86276 19.101 10.1325C19.1544 10.4023 19.2733 10.6548 19.4469 10.8679C19.6207 11.081 19.844 11.2483 20.0975 11.355C20.351 11.4617 20.6267 11.5046 20.9005 11.4799C21.1744 11.4552 21.438 11.3638 21.6683 11.2135C21.8986 11.0633 22.0885 10.8587 22.2213 10.618C22.3542 10.3773 22.426 10.1076 22.4304 9.83264C22.4305 9.60885 22.386 9.3873 22.2994 9.18094C22.2129 8.97449 22.0859 8.78754 21.9261 8.63088L21.943 8.6225Z" stroke="#AEB2B4" stroke-width="1.5" stroke-linecap="round" stroke-linejoin="round"/>
</svg>
