<svg width="12" height="11" viewBox="0 0 12 11" fill="none" xmlns="http://www.w3.org/2000/svg">
<path d="M6 0C2.69161 0 0 2.45973 0 5.48309C0 8.50646 2.69161 10.9662 6 10.9662C6.89679 10.9662 7.76028 10.7881 8.56826 10.4352L10.7233 10.9831C10.7689 10.9944 10.8158 11 10.8627 11C10.9971 11 11.1254 10.9538 11.2229 10.8692C11.3561 10.7543 11.4153 10.5818 11.3758 10.4195L10.9453 8.5786C11.6349 7.661 12 6.59233 12 5.48309C12.0012 2.45973 9.30962 0 6 0ZM9.86966 8.57297L10.1682 9.84566L8.65337 9.46126C8.52385 9.43083 8.38939 9.44435 8.27344 9.49846C7.56168 9.83552 6.79688 10.0069 6 10.0069C3.27138 10.0069 1.05099 7.97776 1.05099 5.48422C1.05099 2.98955 3.27138 0.960443 6 0.960443C8.72985 0.960443 10.9502 2.98955 10.9502 5.48422C10.9502 6.46157 10.6086 7.39496 9.96217 8.18631C9.87212 8.29678 9.83882 8.43769 9.86966 8.57297Z" fill="#AFABAB"/>
</svg>
