<svg width="26" height="25" viewBox="0 0 26 25" fill="none" xmlns="http://www.w3.org/2000/svg">
<path d="M9.4 21.7H5.8C4.52696 21.7 3.30606 21.2154 2.40589 20.3527C1.50571 19.49 1 18.32 1 17.1V6.75C1 5.53 1.50571 4.35998 2.40589 3.49731C3.30606 2.63464 4.52696 2.15 5.8 2.15H19C20.273 2.15 21.4939 2.63464 22.3941 3.49731C23.2943 4.35998 23.8 5.53 23.8 6.75V10.2M8.2 1V3.3M16.6 1V3.3M1 7.9H23.8M20.8 16.6894L19 18.4144" stroke="#EBA900" stroke-width="2" stroke-linecap="round" stroke-linejoin="round"/>
<path d="M19 24C22.3137 24 25 21.4256 25 18.25C25 15.0744 22.3137 12.5 19 12.5C15.6863 12.5 13 15.0744 13 18.25C13 21.4256 15.6863 24 19 24Z" stroke="#EBA900" stroke-width="2" stroke-linecap="round" stroke-linejoin="round"/>
</svg>
