<svg width="36" height="42" viewBox="0 0 36 42" fill="none" xmlns="http://www.w3.org/2000/svg">
<g clip-path="url(#clip0_2839_7758)">
<path d="M16.98 38.22H0.68C0.31 38.22 0 37.92 0 37.54V4.88C0 4.64 0.12 4.42 0.32 4.3L7.02 0.1C7.13 0.04 7.25 0 7.38 0H26.95C27.33 0 27.63 0.31 27.63 0.68V13.61C27.63 13.99 27.32 14.29 26.95 14.29C26.57 14.29 26.27 13.98 26.27 13.61V1.36H7.58L1.36 5.26V36.86H16.97C17.35 36.86 17.65 37.17 17.65 37.54C17.66 37.92 17.35 38.22 16.98 38.22Z" fill="#EBA900"/>
<path d="M7.38011 5.56001H0.680108C0.380108 5.56001 0.110108 5.36001 0.0201085 5.07001C-0.0598915 4.77001 0.0601085 4.46001 0.320108 4.30001L7.02011 0.100008C7.23011 -0.0299918 7.50011 -0.0299918 7.71011 0.0900082C7.92011 0.210008 8.06011 0.440008 8.06011 0.690008V4.89001C8.06011 5.26001 7.76011 5.56001 7.38011 5.56001ZM3.06011 4.20001H6.70011V1.92001L3.06011 4.20001Z" fill="#EBA900"/>
<path d="M29.98 41.16H3.72004C3.34004 41.16 3.04004 40.85 3.04004 40.48V37.54C3.04004 37.16 3.35004 36.86 3.72004 36.86C4.10004 36.86 4.40004 37.17 4.40004 37.54V39.8H29.3V32.46C29.3 32.08 29.61 31.78 29.98 31.78C30.36 31.78 30.66 32.09 30.66 32.46V40.48C30.67 40.86 30.36 41.16 29.98 41.16Z" fill="#EBA900"/>
<path d="M29.98 9.81994C29.6 9.81994 29.3 9.50994 29.3 9.13994V4.29994H26.95C26.57 4.29994 26.27 3.98994 26.27 3.61994C26.27 3.23994 26.58 2.93994 26.95 2.93994H29.99C30.37 2.93994 30.67 3.24994 30.67 3.61994V9.12994C30.67 9.50994 30.36 9.81994 29.98 9.81994Z" fill="#EBA900"/>
<path d="M22.3201 8.77992H5.31013C4.93013 8.77992 4.63013 8.46992 4.63013 8.09992C4.63013 7.71992 4.94013 7.41992 5.31013 7.41992H22.3201C22.7001 7.41992 23.0001 7.72992 23.0001 8.09992C23.0101 8.47992 22.7001 8.77992 22.3201 8.77992Z" fill="#EBA900"/>
<path d="M22.3201 12.2699H5.31013C4.93013 12.2699 4.63013 11.9599 4.63013 11.5899C4.63013 11.2099 4.94013 10.9099 5.31013 10.9099H22.3201C22.7001 10.9099 23.0001 11.2199 23.0001 11.5899C23.0101 11.9599 22.7001 12.2699 22.3201 12.2699Z" fill="#EBA900"/>
<path d="M22.3201 15.7499H5.31013C4.93013 15.7499 4.63013 15.4399 4.63013 15.0699C4.63013 14.6899 4.94013 14.3899 5.31013 14.3899H22.3201C22.7001 14.3899 23.0001 14.6999 23.0001 15.0699C23.0101 15.4399 22.7001 15.7499 22.3201 15.7499Z" fill="#EBA900"/>
<path d="M22.3201 19.2301H5.31013C4.93013 19.2301 4.63013 18.9201 4.63013 18.5501C4.63013 18.1801 4.94013 17.8701 5.31013 17.8701H22.3201C22.7001 17.8701 23.0001 18.1801 23.0001 18.5501C23.0001 18.9201 22.7001 19.2301 22.3201 19.2301Z" fill="#EBA900"/>
<path d="M22.3201 22.7101H5.31013C4.93013 22.7101 4.63013 22.4001 4.63013 22.0301C4.63013 21.6501 4.94013 21.3501 5.31013 21.3501H22.3201C22.7001 21.3501 23.0001 21.6601 23.0001 22.0301C23.0101 22.4101 22.7001 22.7101 22.3201 22.7101Z" fill="#EBA900"/>
<path d="M22.3201 26.2001H5.31013C4.93013 26.2001 4.63013 25.8901 4.63013 25.5201C4.63013 25.1401 4.94013 24.8401 5.31013 24.8401H22.3201C22.7001 24.8401 23.0001 25.1501 23.0001 25.5201C23.0101 25.8901 22.7001 26.2001 22.3201 26.2001Z" fill="#EBA900"/>
<path d="M24.5601 38.96C24.4701 38.96 24.3701 38.94 24.2801 38.9L20.1301 37.03C19.9701 36.96 19.8401 36.82 19.7701 36.65C19.7101 36.48 19.7101 36.29 19.7901 36.13L28.3201 17.19C28.4701 16.85 28.8801 16.69 29.2201 16.85L33.3701 18.72C33.5301 18.79 33.6601 18.93 33.7301 19.1C33.7901 19.27 33.7901 19.46 33.7101 19.62L25.1801 38.56C25.0601 38.81 24.8201 38.96 24.5601 38.96ZM21.3101 36.06L24.2101 37.37L32.1801 19.67L29.2801 18.36L21.3101 36.06Z" fill="#EBA900"/>
<path d="M33.67 20.28C33.58 20.28 33.48 20.26 33.39 20.22L28.06 17.82C27.9 17.75 27.77 17.61 27.7 17.44C27.64 17.27 27.64 17.08 27.72 16.92L28.72 14.69C28.87 14.35 29.28 14.19 29.62 14.35L34.95 16.75C35.11 16.82 35.24 16.96 35.31 17.13C35.37 17.3 35.37 17.49 35.29 17.65L34.29 19.88C34.18 20.13 33.93 20.28 33.67 20.28ZM29.25 16.86L33.34 18.7L33.78 17.71L29.69 15.87L29.25 16.86Z" fill="#EBA900"/>
<path d="M34.0902 17.7901C33.9902 17.7901 33.9002 17.7701 33.8102 17.7301L29.6602 15.8601C29.3202 15.7101 29.1602 15.3001 29.3202 14.9601L30.1802 13.0401C30.5402 12.2401 31.4802 11.8901 32.2802 12.2501L34.7802 13.3801C35.5802 13.7401 35.9302 14.6801 35.5702 15.4801L34.7102 17.4001C34.6402 17.5601 34.5002 17.6901 34.3302 17.7601C34.2502 17.7701 34.1702 17.7901 34.0902 17.7901ZM30.8402 14.8901L33.7402 16.2001L34.3202 14.9001C34.3702 14.7901 34.3202 14.6601 34.2102 14.6101L31.7102 13.4801C31.6002 13.4301 31.4702 13.4801 31.4202 13.5901L30.8402 14.8901Z" fill="#EBA900"/>
<path d="M21.0701 41.16C20.9701 41.16 20.8801 41.14 20.7901 41.1C20.5801 41.01 20.4301 40.81 20.4001 40.59L19.7401 36.52C19.7001 36.27 19.8001 36.02 20.0001 35.87C20.2001 35.72 20.4701 35.69 20.7001 35.79L24.8501 37.66C25.0801 37.76 25.2301 37.98 25.2501 38.23C25.2701 38.48 25.1501 38.72 24.9301 38.85L21.4401 41.05C21.3201 41.13 21.2001 41.16 21.0701 41.16ZM21.2801 37.55L21.5701 39.35L23.1101 38.37L21.2801 37.55Z" fill="#EBA900"/>
</g>
<defs>
<clipPath id="clip0_2839_7758">
<rect width="35.72" height="41.16" fill="white"/>
</clipPath>
</defs>
</svg>
