<svg width="37" height="38" viewBox="0 0 37 38" fill="none" xmlns="http://www.w3.org/2000/svg">
<g clip-path="url(#clip0_2560_7778)">
<path d="M29.5115 29.5997C29.6431 25.2928 29.1518 21.0541 28.0904 16.8925C26.7189 11.5029 21.8062 8.51892 16.4432 9.75879C15.8993 9.88337 15.1303 10.2719 14.9577 9.477C14.7998 8.75325 15.4402 8.35578 16.183 8.16594C21.5694 6.79852 27.485 9.84777 29.1782 15.2611C31.0087 21.1134 31.4824 27.1704 30.728 33.2926C30.6607 33.8414 30.4882 34.2952 29.8654 34.2418C29.2016 34.1855 29.1928 33.6693 29.2396 33.1354C29.339 31.9578 29.4238 30.7773 29.5115 29.5997Z" fill="#08539F"/>
<path d="M22.897 27.6509C22.9613 30.9642 22.5607 33.8859 21.8706 36.772C21.7332 37.3534 21.6688 38.2343 20.7448 37.9466C19.9786 37.7064 20.2652 37.0093 20.4085 36.4339C21.8443 30.6379 21.6717 24.8538 20.2798 19.0756C20.0547 18.1443 19.5517 17.4739 18.5604 17.7053C17.5428 17.9426 17.1919 18.7138 17.5252 19.7579C17.6305 20.0842 17.6627 20.4342 17.7562 20.7634C18.4434 23.1364 18.1305 25.6132 18.499 28.0187C18.5867 28.5883 18.6043 29.3535 17.7709 29.3476C16.9638 29.3417 17.0106 28.6179 17.0164 28.0128C17.0427 25.3343 16.6421 22.7122 16.0222 20.1168C15.5514 18.1354 16.4784 16.501 18.2358 16.145C20.0342 15.7802 21.4583 17.0616 21.8297 19.1023C22.3706 22.0448 23.0724 24.9606 22.897 27.6509Z" fill="#08539F"/>
<path d="M19.8993 3.93616C22.3527 3.96582 25.4962 5.09891 28.2508 7.33542C28.7421 7.73289 29.4293 8.17782 28.8532 8.88081C28.2713 9.58974 27.7449 8.93124 27.2507 8.55157C23.0282 5.29468 18.4079 4.52643 13.5274 6.65913C8.64401 8.78886 6.03854 12.7369 5.43323 18.0642C5.40106 18.3578 5.39229 18.6544 5.38644 18.9511C5.37474 19.4731 5.12619 19.8439 4.61153 19.8291C4.11149 19.8142 3.86878 19.4553 3.86585 18.9244C3.85416 17.7824 4.00914 16.6582 4.27232 15.5577C5.90987 8.70581 11.8782 3.94802 19.8993 3.93616Z" fill="#08539F"/>
<path d="M26.9056 25.2009C26.9232 25.5509 26.929 25.6488 26.9319 25.7466C26.9524 26.3488 27.0109 27.0399 26.1716 27.0488C25.4201 27.0547 25.4611 26.4051 25.4201 25.8564C25.2096 23.0533 24.8704 20.2681 24.0662 17.5688C23.3001 15.009 20.9227 13.3242 18.4693 13.5467C15.7556 13.7899 13.7262 15.7772 13.3665 18.5061C13.2613 19.31 13.4075 20.0842 13.6034 20.8405C13.7613 21.4427 13.7701 21.9736 13.1004 22.1457C12.4951 22.3029 12.2729 21.7986 12.1179 21.3003C10.5681 16.2756 14.6737 11.9983 18.519 12.1555C23.1451 12.3453 25.1716 14.9942 25.8354 18.1561C26.3413 20.5736 26.7272 22.994 26.9056 25.2009Z" fill="#08539F"/>
<path d="M8.12967 33.9719C9.27304 29.5671 8.83441 25.2305 7.94545 20.8198C7.11205 16.6789 8.6648 13.1788 11.7996 10.4173C12.2265 10.0406 12.7353 9.48887 13.2997 10.0999C13.9605 10.8177 13.2617 11.2063 12.7909 11.6245C9.72921 14.3534 8.72329 17.7171 9.64149 21.7423C10.3287 24.7589 10.7585 27.7696 10.0743 30.9048C9.83449 32.0083 9.87835 33.2333 9.57423 34.3694C9.45142 34.8291 9.16484 35.1969 8.61802 35.0219C8.1209 34.8618 7.99808 34.4613 8.12967 33.9719Z" fill="#08539F"/>
<path d="M17.4396 0.0801025C19.2555 -0.100836 21.0334 0.0267109 22.7909 0.415283C23.3962 0.548762 24.1974 0.619951 23.9927 1.53057C23.8144 2.32255 23.1652 2.10305 22.5599 1.9933C14.8985 0.614019 8.80441 3.13232 4.30405 9.57491C3.95022 10.0821 3.66365 10.8682 2.87119 10.3194C2.19862 9.85373 2.64018 9.26939 2.96476 8.777C6.40948 3.512 11.2695 0.661478 17.4396 0.0801025Z" fill="#08539F"/>
<path d="M34.8979 26.2806C34.8979 26.9213 34.9067 27.559 34.895 28.1997C34.8833 28.7811 34.974 29.5048 34.0938 29.4603C33.3481 29.4247 33.4125 28.784 33.3891 28.2353C33.3189 26.6157 33.351 24.9784 33.1347 23.3796C32.582 19.3218 32.3013 15.1721 29.9853 11.589C29.6753 11.1114 29.6636 10.619 30.1871 10.3165C30.7514 9.98721 31.0789 10.4173 31.3597 10.8444C32.3129 12.289 33.0323 13.864 33.3481 15.5577C34.0119 19.1053 34.936 22.6232 34.8979 26.2806Z" fill="#08539F"/>
<path d="M36.9885 14.1517C37.0382 14.5907 36.9066 14.9378 36.4709 15.0891C36.0001 15.2552 35.7311 14.9556 35.5498 14.5878C35.4211 14.3267 35.3802 14.0242 35.2895 13.7454C33.8303 9.3554 31.1108 6.01842 27.1339 3.73445C26.8386 3.56537 26.5286 3.41706 26.2625 3.20943C26.0052 3.01069 25.9788 2.70221 26.0812 2.40262C26.1865 2.09117 26.4672 2.18016 26.6953 2.17422C27.1251 2.16533 27.5316 2.13863 27.9556 2.38186C32.4296 4.95652 35.3655 8.76512 36.8949 13.7157C36.9329 13.8611 36.9563 14.0064 36.9885 14.1517Z" fill="#08539F"/>
<path d="M12.9803 27.8882C12.9131 26.856 12.84 25.8267 12.7815 24.7945C12.7552 24.3347 12.7961 23.8661 13.3605 23.7622C14.0067 23.6436 14.264 24.0915 14.2933 24.6195C14.3986 26.5712 14.5097 28.4963 14.2348 30.4777C13.995 32.2159 13.9219 33.9838 13.4306 35.6834C13.2669 36.244 13.2143 37.1487 12.3253 36.9233C11.4159 36.6919 11.8077 35.9474 11.9656 35.3364C12.6002 32.8952 13.0359 30.4303 12.9803 27.8882Z" fill="#08539F"/>
<path d="M0.00545832 19.1617C-0.0120869 17.557 0.137048 16.0976 0.493801 14.6619C0.634163 14.0924 0.762828 13.3983 1.57868 13.6297C2.27172 13.8255 2.15475 14.4335 2.02024 14.9793C1.34475 17.6934 1.3389 20.4134 1.99392 23.1334C2.14013 23.7355 2.28634 24.4 1.49096 24.5602C0.678026 24.7233 0.610769 23.961 0.47918 23.4152C0.128275 21.9766 -0.0325564 20.5143 0.00545832 19.1617Z" fill="#08539F"/>
<path d="M6.52701 27.82C6.52409 29.1667 6.48023 30.2909 6.24629 31.4032C6.14102 31.9104 5.90123 32.2308 5.37195 32.1566C4.81928 32.0765 4.68769 31.6464 4.77249 31.1659C5.27253 28.262 5.05321 25.4026 4.2666 22.5787C4.12916 22.0893 4.24028 21.674 4.71985 21.4842C5.40119 21.2143 5.60296 21.8668 5.72286 22.2465C6.31647 24.1182 6.5738 26.0581 6.52701 27.82Z" fill="#08539F"/>
<path d="M26.9316 30.5163C26.6626 32.4413 26.4052 34.2834 26.145 36.1224C26.0836 36.5644 25.8584 36.8699 25.3876 36.8551C24.8349 36.8373 24.5659 36.4635 24.677 35.9622C25.1449 33.8414 25.1888 31.6731 25.4578 29.5315C25.5163 29.0658 25.759 28.7929 26.2122 28.8018C26.6626 28.8137 26.917 29.0984 26.9316 29.5641C26.9404 29.9112 26.9316 30.2553 26.9316 30.5163Z" fill="#08539F"/>
<path d="M18.2328 32.3256C18.0427 33.9927 17.6626 35.6181 17.2093 37.2288C17.0836 37.6737 16.8321 38.0979 16.2882 37.9585C15.7004 37.8072 15.6332 37.3741 15.7648 36.7987C16.1245 35.2207 16.449 33.6308 16.7502 32.0379C16.8555 31.4803 17.0544 31.068 17.6743 31.1688C18.3381 31.2786 18.2884 31.8155 18.2328 32.3256Z" fill="#08539F"/>
</g>
<defs>
<clipPath id="clip0_2560_7778">
<rect width="37" height="38" fill="white"/>
</clipPath>
</defs>
</svg>
