<svg width="36" height="24" viewBox="0 0 36 24" fill="none" xmlns="http://www.w3.org/2000/svg">
<path d="M35.402 20.9752C35.0193 21.5702 34.7083 21.6446 34.0864 21.2975C31.6465 19.9091 29.1827 18.5207 26.7429 17.1322C26.6472 17.0826 26.5276 17.0083 26.3601 16.9339C26.3601 17.0826 26.3362 17.2066 26.3362 17.3306C26.3123 18.2231 26.3601 19.1157 26.2884 20.0083C26.1449 21.8182 24.5422 23.3802 22.796 23.3802C16.5768 23.3802 10.3336 23.405 4.1143 23.3802C2.27244 23.3802 0.621939 21.6446 0.598018 19.7355C0.574098 14.6033 0.574098 9.47107 0.598018 4.33884C0.598018 2.35537 2.27244 0.694212 4.28174 0.644625C5.09503 0.619832 5.8844 0.644625 6.69768 0.644625C11.9601 0.644625 17.1987 0.644625 22.4611 0.644625C24.3748 0.644625 25.8817 1.8595 26.2405 3.71901C26.3601 4.31405 26.3123 4.95867 26.3362 5.57851C26.3601 6.07438 26.3362 6.59504 26.3362 7.16529C26.5037 7.09091 26.6233 7.01653 26.7429 6.96694C29.1827 5.57851 31.6465 4.19008 34.0864 2.80165C34.7083 2.42975 34.9954 2.47934 35.402 3.07438C35.402 9.04958 35.402 15 35.402 20.9752ZM13.491 21.8182C16.4811 21.8182 19.4472 21.8182 22.4372 21.8182C22.6525 21.8182 22.8917 21.8182 23.107 21.7686C24.2312 21.4959 24.8532 20.6033 24.8532 19.314C24.8532 14.4297 24.8532 9.57024 24.8532 4.68595C24.8532 4.41322 24.8292 4.14049 24.7575 3.89256C24.4704 2.80165 23.6093 2.15702 22.4133 2.15702C16.4332 2.15702 10.4771 2.15702 4.49702 2.15702C4.2339 2.15702 3.94686 2.18182 3.68373 2.2562C2.67908 2.55372 2.08107 3.42148 2.08107 4.58677C2.08107 9.49586 2.08107 14.405 2.08107 19.314C2.08107 20.9008 2.96612 21.8182 4.49702 21.8182C7.51097 21.843 10.501 21.8182 13.491 21.8182ZM33.895 19.4132C33.895 14.4793 33.895 9.57024 33.895 4.66115C33.7993 4.71074 33.7515 4.73553 33.6797 4.76033C31.3116 6.09917 28.9435 7.43801 26.5515 8.77686C26.3601 8.90082 26.3362 9.02479 26.3362 9.22314C26.3362 11.0578 26.3362 12.9174 26.3362 14.7521C26.3362 15.0248 26.408 15.1983 26.6472 15.3223C28.9196 16.5868 31.192 17.876 33.4645 19.1653C33.608 19.2645 33.7276 19.314 33.895 19.4132Z" fill="#EBA900" stroke="#EBA900" stroke-miterlimit="10"/>
</svg>
