<svg width="28" height="37" viewBox="0 0 28 37" fill="none" xmlns="http://www.w3.org/2000/svg">
<g clip-path="url(#clip0_8_1252)">
<path d="M25.8462 29.6001C24.0318 31.3991 22.2759 33.1053 20.4615 34.8858C20.4615 33.0868 20.4615 31.362 20.4615 29.6001C22.2174 29.6001 23.9733 29.6001 25.8462 29.6001Z" fill="#EBA900"/>
<path d="M23.6923 7.40007C23.6096 8.45721 23.6096 8.45721 23.031 8.45721C19.1734 8.45721 15.3157 8.45721 11.4581 8.45721C11.2377 8.45721 11.0172 8.45721 10.7692 8.45721C10.7692 8.0728 10.7692 7.78449 10.7692 7.40007C15.0953 7.40007 19.3938 7.40007 23.6923 7.40007Z" fill="#EBA900"/>
<path d="M24.7692 5.28578C24.6797 6.34293 24.6797 6.34292 24.0528 6.34292C19.8737 6.34292 15.6946 6.34292 11.5155 6.34292C11.2767 6.34292 11.0379 6.34292 10.7692 6.34292C10.7692 5.95851 10.7692 5.6702 10.7692 5.28578C15.4558 5.28578 20.1125 5.28578 24.7692 5.28578Z" fill="#EBA900"/>
<path d="M23.6923 16.9144C23.6096 17.9715 23.6096 17.9715 23.031 17.9715C19.1734 17.9715 15.3157 17.9715 11.4581 17.9715C11.2377 17.9715 11.0172 17.9715 10.7692 17.9715C10.7692 17.5871 10.7692 17.2988 10.7692 16.9144C15.0953 16.9144 19.3938 16.9144 23.6923 16.9144Z" fill="#EBA900"/>
<path d="M24.7692 14.8001C24.6797 15.8572 24.6797 15.8572 24.0528 15.8572C19.8737 15.8572 15.6946 15.8572 11.5155 15.8572C11.2767 15.8572 11.0379 15.8572 10.7692 15.8572C10.7692 15.4728 10.7692 15.1845 10.7692 14.8001C15.4558 14.8001 20.1125 14.8001 24.7692 14.8001Z" fill="#EBA900"/>
<path d="M23.6923 26.4286C23.6096 27.4858 23.6096 27.4858 23.031 27.4858C19.1734 27.4858 15.3157 27.4858 11.4581 27.4858C11.2377 27.4858 11.0172 27.4858 10.7692 27.4858C10.7692 27.1014 10.7692 26.8131 10.7692 26.4286C15.0953 26.4286 19.3938 26.4286 23.6923 26.4286Z" fill="#EBA900"/>
<path d="M24.7692 24.3144C24.6797 25.3715 24.6797 25.3715 24.0528 25.3715C19.8737 25.3715 15.6946 25.3715 11.5155 25.3715C11.2767 25.3715 11.0379 25.3715 10.7692 25.3715C10.7692 24.9871 10.7692 24.6988 10.7692 24.3144C15.4558 24.3144 20.1125 24.3144 24.7692 24.3144Z" fill="#EBA900"/>
<path d="M24.6094 36.013H3.39063C2.07813 36.013 1.01172 34.9726 1.01172 33.6921V3.30785C1.01172 2.02739 2.07813 0.987015 3.39063 0.987015H24.6094C25.9219 0.987015 26.9883 2.02739 26.9883 3.30785V33.6921C26.9883 34.9726 25.9219 36.013 24.6094 36.013Z" stroke="#EBA900" stroke-width="2" stroke-miterlimit="10" stroke-linecap="round"/>
<path d="M6.5625 8.80316C7.86123 8.80316 8.91406 7.77603 8.91406 6.509C8.91406 5.24197 7.86123 4.21484 6.5625 4.21484C5.26377 4.21484 4.21094 5.24197 4.21094 6.509C4.21094 7.77603 5.26377 8.80316 6.5625 8.80316Z" fill="#EBA900"/>
<path d="M6.5625 18.2466C7.86123 18.2466 8.91406 17.2194 8.91406 15.9524C8.91406 14.6854 7.86123 13.6582 6.5625 13.6582C5.26377 13.6582 4.21094 14.6854 4.21094 15.9524C4.21094 17.2194 5.26377 18.2466 6.5625 18.2466Z" fill="#EBA900"/>
<path d="M6.67187 27.9301C7.97061 27.9301 9.02344 26.9029 9.02344 25.6359C9.02344 24.3689 7.97061 23.3417 6.67187 23.3417C5.37314 23.3417 4.32031 24.3689 4.32031 25.6359C4.32031 26.9029 5.37314 27.9301 6.67187 27.9301Z" fill="#EBA900"/>
</g>
<defs>
<clipPath id="clip0_8_1252">
<rect width="28" height="37" fill="white"/>
</clipPath>
</defs>
</svg>
