<svg width="19" height="16" viewBox="0 0 19 16" fill="none" xmlns="http://www.w3.org/2000/svg">
<path d="M7.2265 5.55361C7.2265 5.91916 7.09786 6.26974 6.86887 6.52823C6.63988 6.78671 6.3293 6.93193 6.00546 6.93193C5.68162 6.93193 5.37105 6.78671 5.14206 6.52823C4.91307 6.26974 4.78442 5.91916 4.78442 5.55361C4.78442 5.18806 4.91307 4.83748 5.14206 4.57899C5.37105 4.32051 5.68162 4.17529 6.00546 4.17529C6.3293 4.17529 6.63988 4.32051 6.86887 4.57899C7.09786 4.83748 7.2265 5.18806 7.2265 5.55361Z" fill="white"/>
<path d="M1.68807 0C1.24037 0 0.811 0.203435 0.494425 0.565552C0.17785 0.927668 0 1.4188 0 1.93091L0 13.5164C0 14.0285 0.17785 14.5196 0.494425 14.8818C0.811 15.2439 1.24037 15.4473 1.68807 15.4473H16.318C16.7657 15.4473 17.1951 15.2439 17.5117 14.8818C17.8283 14.5196 18.0061 14.0285 18.0061 13.5164V1.93091C18.0061 1.4188 17.8283 0.927668 17.5117 0.565552C17.1951 0.203435 16.7657 0 16.318 0H1.68807ZM16.318 1.28728C16.4673 1.28728 16.6104 1.35509 16.7159 1.47579C16.8214 1.5965 16.8807 1.76021 16.8807 1.93091V9.65457L12.6324 7.14824C12.5269 7.08777 12.4074 7.06679 12.2909 7.08828C12.1743 7.10976 12.0667 7.17262 11.9831 7.26796L7.8079 12.0438L4.81438 9.7627C4.7063 9.68039 4.57666 9.64337 4.44744 9.65792C4.31822 9.67246 4.19738 9.73768 4.10539 9.84251L1.12763 12.8728V13.5679C1.12629 13.5508 1.12554 13.5336 1.12538 13.5164V1.93091C1.12538 1.76021 1.18467 1.5965 1.29019 1.47579C1.39572 1.35509 1.53884 1.28728 1.68807 1.28728H16.318Z" fill="white"/>
</svg>
