<svg width="12" height="10" viewBox="0 0 12 10" fill="none" xmlns="http://www.w3.org/2000/svg">
<path d="M5.99927 1.69189L5.6612 1.38167L5.56713 1.29534L5.56681 1.29505C4.99509 0.769483 4.23282 0.5 3.4581 0.5C2.68346 0.5 1.92097 0.769438 1.34789 1.29534C0.217372 2.33277 0.217372 4.01449 1.34789 5.05191L1.00982 5.42031L1.34789 5.05192L1.44196 5.13824L6.00044 9.32138L10.5589 5.13824L10.6527 5.05221L5.99927 1.69189ZM5.99927 1.69189L6.33733 1.38167M5.99927 1.69189L6.33733 1.38167M6.33733 1.38167L6.4314 1.29534C7.58661 0.235246 9.49661 0.235246 10.6518 1.29534C11.2226 1.81912 11.5 2.4992 11.5 3.17363M6.33733 1.38167L11.5 3.17363M11.5 3.17363C11.5 3.84701 11.2226 4.52816 10.653 5.05191L11.5 3.17363Z" stroke="#AFABAB"/>
</svg>
