<svg width="26" height="27" viewBox="0 0 26 27" fill="none" xmlns="http://www.w3.org/2000/svg">
<path d="M7.71967 12.2089C8.00553 12.1566 8.25699 12.0027 8.41873 11.7808C8.58047 11.559 8.63923 11.2876 8.5821 11.0261C8.52496 10.7647 8.35661 10.5347 8.11407 10.3868C7.87153 10.2389 7.57468 10.1851 7.28882 10.2374C5.96549 10.4786 4.96604 11.3257 4.43407 12.4608C3.9065 13.5839 3.82883 14.9885 4.24063 16.4922C4.27279 16.6229 4.33319 16.7464 4.41828 16.8555C4.50336 16.9645 4.61143 17.0569 4.73611 17.1272C4.8608 17.1975 4.99959 17.2443 5.14434 17.2648C5.28908 17.2854 5.43686 17.2793 5.57898 17.2468C5.7211 17.2144 5.8547 17.1563 5.97193 17.076C6.08916 16.9957 6.18765 16.8948 6.26161 16.7791C6.33558 16.6635 6.38352 16.5355 6.40263 16.4027C6.42174 16.2699 6.41163 16.1349 6.3729 16.0057C6.05049 14.829 6.15601 13.8882 6.4535 13.2529C6.74659 12.6284 7.21261 12.3014 7.71967 12.2075V12.2089ZM3.43169 1.73365C3.36915 2.68517 3.52151 3.63828 3.87928 4.53361C4.23704 5.42894 4.79255 6.24731 5.5112 6.93776C4.11513 7.30382 2.86523 8.03256 1.91315 9.03554C0.961075 10.0385 0.34774 11.2726 0.147565 12.5882C-0.334796 15.7447 0.373352 18.9573 2.15526 21.6964L2.66818 22.4871C2.68762 22.5162 2.70865 22.5444 2.73119 22.5715L4.8063 25.126C5.24583 25.6674 5.8091 26.1147 6.4569 26.4367C7.10471 26.7587 7.82148 26.9478 8.55731 26.9906C9.29313 27.0335 10.0303 26.9292 10.7176 26.6849C11.4048 26.4406 12.0256 26.0623 12.5367 25.5763C12.5964 25.5195 12.6681 25.4743 12.7474 25.4434C12.8268 25.4125 12.9121 25.3966 12.9983 25.3966C13.0845 25.3966 13.1698 25.4125 13.2492 25.4434C13.3285 25.4743 13.4002 25.5195 13.4599 25.5763C13.971 26.0623 14.5918 26.4406 15.279 26.6849C15.9663 26.9292 16.7035 27.0335 17.4393 26.9906C18.1751 26.9478 18.8919 26.7587 19.5397 26.4367C20.1875 26.1147 20.7508 25.6674 21.1903 25.126L23.2654 22.5702C23.2875 22.543 23.308 22.5148 23.327 22.4857L23.8413 21.695C25.6244 18.9568 26.3341 15.7447 25.8534 12.5882C25.7116 11.6581 25.3624 10.7645 24.8277 9.96278C24.2929 9.16107 23.5839 8.46828 22.7445 7.92729C21.9051 7.38631 20.9533 7.00865 19.9479 6.81769C18.9425 6.62673 17.9049 6.62654 16.8994 6.81714L14.1135 7.34519H14.1091C14.1531 6.29981 14.3319 5.17402 14.6821 4.21173C15.1071 3.04842 15.6962 2.34882 16.3528 2.09953C16.6219 1.99681 16.8354 1.80051 16.9463 1.55382C17.0572 1.30712 17.0564 1.03025 16.9441 0.7841C16.8318 0.53795 16.6171 0.34269 16.3474 0.241273C16.0776 0.139857 15.7749 0.140592 15.5057 0.243317C13.964 0.831678 13.0877 2.22686 12.5968 3.57513L12.5294 3.76544C12.1685 3.12769 11.7023 2.54456 11.1474 2.03654C10.3874 1.34069 9.47439 0.80043 8.46888 0.451546C7.46337 0.102662 6.38829 -0.0468879 5.31482 0.0127983C4.82493 0.0385863 4.36243 0.227913 4.01505 0.544866C3.66767 0.861819 3.45957 1.28435 3.43023 1.73231L3.43169 1.73365ZM5.61964 2.01108C6.35503 1.99167 7.08698 2.11007 7.77047 2.35899C8.45396 2.60791 9.07453 2.9821 9.59401 3.45852C10.115 3.9336 10.5241 4.50114 10.7963 5.12621C11.0685 5.75129 11.1979 6.42069 11.1767 7.09322C10.9109 7.09982 10.645 7.08862 10.381 7.05972L9.47677 6.88817C8.61734 6.65369 7.83555 6.22664 7.20235 5.64578C6.68141 5.1707 6.27225 4.60316 6.00007 3.97809C5.72788 3.35301 5.59842 2.68362 5.61964 2.01108ZM8.65171 8.78459L8.94773 8.84088C9.29945 8.93202 9.65702 9.00037 10.0175 9.0446L11.439 9.31264C12.4686 9.5077 13.5309 9.5077 14.5605 9.31264L17.3478 8.78459C18.0588 8.64983 18.7925 8.64998 19.5034 8.78503C20.2143 8.92008 20.8873 9.18716 21.4808 9.56973C22.0743 9.9523 22.5756 10.4422 22.9536 11.0091C23.3317 11.576 23.5785 12.2079 23.6787 12.8656C24.0902 15.5698 23.4818 18.3215 21.9538 20.6671L21.4687 21.4136L19.4273 23.9278C19.1782 24.2347 18.8589 24.4883 18.4917 24.6708C18.1245 24.8533 17.7181 24.9604 17.301 24.9847C16.8839 25.0089 16.4661 24.9497 16.0765 24.8112C15.687 24.6726 15.3352 24.4581 15.0456 24.1825C14.7808 23.9305 14.4631 23.73 14.1116 23.5931C13.7601 23.4561 13.3819 23.3855 12.9998 23.3855C12.6177 23.3855 12.2395 23.4561 11.8879 23.5931C11.5364 23.73 11.2187 23.9305 10.954 24.1825C10.6644 24.4581 10.3125 24.6726 9.92301 24.8112C9.53348 24.9497 9.11561 25.0089 8.6985 24.9847C8.28139 24.9604 7.87507 24.8533 7.50785 24.6708C7.14063 24.4883 6.82133 24.2347 6.5722 23.9278L4.5308 21.4136L4.04572 20.6671C2.51824 18.3213 1.91037 15.5696 2.32233 12.8656C2.42257 12.208 2.66931 11.5763 3.04727 11.0095C3.42524 10.4427 3.92638 9.95285 4.51969 9.5703C5.113 9.18776 5.78585 8.92064 6.49659 8.78549C7.20733 8.65034 7.94083 8.65004 8.65171 8.78459Z" fill="#EBA900"/>
</svg>
