<svg width="23" height="27" viewBox="0 0 23 27" fill="none" xmlns="http://www.w3.org/2000/svg">
<g clip-path="url(#clip0_8_4920)">
<path d="M11.7287 0.280365C12.0775 0.345061 12.3827 0.452889 12.688 0.646978C13.4728 1.16455 13.8216 2.15656 13.5382 3.04075C13.5164 3.06231 13.5164 3.10544 13.4946 3.14858C13.7998 3.2564 14.105 3.34267 14.3884 3.47206C16.4813 4.37781 17.7458 5.95209 18.269 8.1302C18.4434 8.90656 18.4434 9.70449 18.4652 10.4808C18.5088 11.6885 18.6178 12.8746 18.9448 14.0392C19.2936 15.2253 19.8169 16.3251 20.7543 17.1661C21.1685 17.5543 21.6481 17.8778 22.0842 18.2229C22.106 18.2444 22.1278 18.266 22.1714 18.2876C22.8254 18.8483 22.869 19.4952 22.433 20.25C22.0842 20.8538 21.4955 21.1773 20.8851 21.4361C20.0567 21.7812 19.1628 21.9537 18.2908 22.0831C17.0917 22.2556 15.8927 22.3419 14.6936 22.4066C14.6282 22.4066 14.5846 22.4066 14.5192 22.4281C14.977 24.0671 14.5846 25.4042 13.0804 26.2884C11.9685 26.9569 10.7913 26.9138 9.72302 26.1805C8.37136 25.2748 8.02255 23.9808 8.48037 22.4281C8.13155 22.4066 7.80454 22.385 7.45572 22.3634C6.06046 22.2772 4.687 22.1478 3.33534 21.8243C2.65951 21.6733 2.00549 21.4577 1.41686 21.0911C1.02444 20.8538 0.719231 20.5519 0.501221 20.1422C0.108804 19.4305 0.217809 18.762 0.871837 18.2444C1.19885 17.9856 1.52587 17.7484 1.85288 17.4896C2.87752 16.6917 3.53155 15.6566 3.92397 14.4489C4.22918 13.5216 4.40359 12.5727 4.46899 11.6022C4.5126 10.8259 4.5344 10.0495 4.578 9.27318C4.6652 7.78516 5.14482 6.4481 6.10406 5.28356C6.9761 4.24842 8.08795 3.55832 9.37421 3.19171C9.41781 3.19171 9.43961 3.17014 9.48321 3.14858C9.37421 2.7604 9.3306 2.37222 9.39601 1.96247C9.57042 1.09985 10.268 0.452889 11.1401 0.30193C11.1619 0.30193 11.2055 0.280365 11.2273 0.280365C11.4017 0.280365 11.5761 0.280365 11.7287 0.280365ZM11.3799 21.4577C12.9714 21.393 14.4756 21.3499 15.9799 21.2636C17.2007 21.1989 18.3998 21.0479 19.577 20.746C20.1875 20.5735 20.7979 20.401 21.2775 19.9912C21.4301 19.8618 21.5391 19.6893 21.6263 19.5168C21.6917 19.3874 21.6481 19.2364 21.5173 19.1286C21.3429 18.9992 21.1685 18.8698 20.9941 18.7404C19.7515 17.8994 18.8358 16.778 18.2908 15.3762C17.6804 13.8882 17.4624 12.3355 17.397 10.7612C17.3534 9.96327 17.397 9.14378 17.2225 8.34586C16.7647 6.08148 15.1515 4.52877 12.8624 4.09746C12.797 4.07589 12.7316 4.09746 12.6662 4.11902C11.9031 4.61503 11.1183 4.63659 10.3334 4.14059C10.268 4.11902 10.2026 4.09746 10.1372 4.09746C8.82918 4.35624 7.71733 4.93851 6.8671 5.97366C5.97326 7.0735 5.64624 8.34586 5.62444 9.70449C5.62444 11.2141 5.49364 12.7237 5.10122 14.2117C4.6216 15.98 3.74956 17.4681 2.2453 18.5679C1.96188 18.762 1.70027 18.9561 1.43866 19.1717C1.35146 19.2364 1.32966 19.3227 1.35146 19.4305C1.39506 19.6893 1.56947 19.8618 1.76568 20.0128C2.13629 20.3147 2.59411 20.4872 3.05193 20.6382C4.20738 21.0048 5.40643 21.1558 6.62729 21.242C8.24056 21.3283 9.85383 21.393 11.3799 21.4577ZM11.5107 22.4497C10.9657 22.4497 10.4425 22.4713 9.89743 22.4497C9.70122 22.4497 9.61402 22.5144 9.54861 22.6869C9.2652 23.4417 9.3088 24.1749 9.83203 24.8219C10.3553 25.4904 11.0529 25.7276 11.8813 25.6198C13.2984 25.4042 14.0832 23.8083 13.4074 22.5575C13.3638 22.4713 13.2984 22.4497 13.2112 22.4497C12.6443 22.4497 12.0775 22.4497 11.5107 22.4497ZM11.4889 3.42893C12.0993 3.42893 12.5571 2.97605 12.5571 2.39378C12.5571 1.81152 12.0993 1.33707 11.4889 1.33707C10.8785 1.33707 10.3989 1.81152 10.3989 2.39378C10.4207 2.95449 10.9003 3.42893 11.4889 3.42893Z" fill="#EBA900" stroke="#EBA900" stroke-miterlimit="10"/>
</g>
<defs>
<clipPath id="clip0_8_4920">
<rect width="23" height="27" fill="white"/>
</clipPath>
</defs>
</svg>
