<svg width="23" height="28" viewBox="0 0 23 28" fill="none" xmlns="http://www.w3.org/2000/svg">
<path d="M1.73058 26.2386C1.73055 26.2409 1.73051 26.2433 1.73048 26.2456L1.23053 26.2386H1.73058ZM1.73058 26.2386H20.6777C20.6779 26.2446 20.6782 26.2505 20.6784 26.2565L21.178 26.2386V25.7386H21.1478L1.73058 26.2386ZM21.178 26.7386H21.6963L21.6777 26.2206C21.4741 20.546 16.7828 15.656 10.3919 16.1233C4.47056 16.5255 0.798605 21.4152 0.730579 26.2315L0.723417 26.7386H1.23053H1.26924H1.30795H1.34666H1.38537H1.42408H1.4628H1.50151H1.54023H1.57895H1.61767H1.6564H1.69512H1.73384H1.77257H1.8113H1.85003H1.88876H1.92749H1.96623H2.00496H2.0437H2.08244H2.12118H2.15992H2.19866H2.2374H2.27615H2.3149H2.35364H2.39239H2.43114H2.4699H2.50865H2.54741H2.58616H2.62492H2.66368H2.70244H2.7412H2.77996H2.81873H2.8575H2.89626H2.93503H2.9738H3.01257H3.05135H3.09012H3.1289H3.16767H3.20645H3.24523H3.28401H3.32279H3.36158H3.40036H3.43915H3.47793H3.51672H3.55551H3.59431H3.6331H3.67189H3.71069H3.74948H3.78828H3.82708H3.86588H3.90468H3.94349H3.98229H4.0211H4.0599H4.09871H4.13752H4.17633H4.21514H4.25396H4.29277H4.33159H4.3704H4.40922H4.44804H4.48686H4.52568H4.56451H4.60333H4.64216H4.68098H4.71981H4.75864H4.79747H4.8363H4.87514H4.91397H4.95281H4.99164H5.03048H5.06932H5.10816H5.147H5.18584H5.22469H5.26353H5.30238H5.34123H5.38007H5.41892H5.45777H5.49663H5.53548H5.57433H5.61319H5.65205H5.6909H5.72976H5.76862H5.80748H5.84635H5.88521H5.92407H5.96294H6.00181H6.04067H6.07954H6.11841H6.15729H6.19616H6.23503H6.27391H6.31278H6.35166H6.39054H6.42942H6.4683H6.50718H6.54606H6.58494H6.62383H6.66271H6.7016H6.74049H6.77938H6.81827H6.85716H6.89605H6.93494H6.97384H7.01273H7.05163H7.09053H7.12942H7.16832H7.20722H7.24613H7.28503H7.32393H7.36284H7.40174H7.44065H7.47956H7.51847H7.55737H7.59629H7.6352H7.67411H7.71302H7.75194H7.79085H7.82977H7.86869H7.90761H7.94653H7.98545H8.02437H8.06329H8.10221H8.14114H8.18007H8.21899H8.25792H8.29685H8.33578H8.37471H8.41364H8.45257H8.4915H8.53044H8.56937H8.60831H8.64725H8.68618H8.72512H8.76406H8.803H8.84194H8.88089H8.91983H8.95877H8.99772H9.03666H9.07561H9.11456H9.15351H9.19246H9.23141H9.27036H9.30931H9.34826H9.38722H9.42617H9.46513H9.50409H9.54304H9.582H9.62096H9.65992H9.69888H9.73784H9.77681H9.81577H9.85473H9.8937H9.93267H9.97163H10.0106H10.0496H10.0885H10.1275H10.1665H10.2055H10.2444H10.2834H10.3224H10.3613H10.4003H10.4393H10.4783H10.5173H10.5562H10.5952H10.6342H10.6732H10.7122H10.7511H10.7901H10.8291H10.8681H10.9071H10.9461H10.9851H11.024H11.063H11.102H11.141H11.18H11.219H11.258H11.297H11.336H11.375H11.414H11.453H11.492H11.531H11.57H11.609H11.648H11.687H11.726H11.765H11.804H11.843H11.882H11.921H11.96H11.999H12.038H12.077H12.116H12.155H12.194H12.233H12.272H12.3111H12.3501H12.3891H12.4281H12.4671H12.5061H12.5451H12.5842H12.6232H12.6622H12.7012H12.7402H12.7792H12.8183H12.8573H12.8963H12.9353H12.9744H13.0134H13.0524H13.0914H13.1304H13.1695H13.2085H13.2475H13.2866H13.3256H13.3646H13.4036H13.4427H13.4817H13.5207H13.5598H13.5988H13.6378H13.6769H13.7159H13.7549H13.794H13.833H13.872H13.9111H13.9501H13.9891H14.0282H14.0672H14.1063H14.1453H14.1843H14.2234H14.2624H14.3015H14.3405H14.3795H14.4186H14.4576H14.4967H14.5357H14.5748H14.6138H14.6529H14.6919H14.7309H14.77H14.809H14.8481H14.8871H14.9262H14.9652H15.0043H15.0433H15.0824H15.1214H15.1605H15.1995H15.2386H15.2776H15.3167H15.3558H15.3948H15.4339H15.4729H15.512H15.551H15.5901H15.6291H15.6682H15.7073H15.7463H15.7854H15.8244H15.8635H15.9026H15.9416H15.9807H16.0197H16.0588H16.0979H16.1369H16.176H16.2151H16.2541H16.2932H16.3322H16.3713H16.4104H16.4494H16.4885H16.5276H16.5666H16.6057H16.6448H16.6838H16.7229H16.762H16.801H16.8401H16.8792H16.9182H16.9573H16.9964H17.0355H17.0745H17.1136H17.1527H17.1917H17.2308H17.2699H17.309H17.348H17.3871H17.4262H17.4652H17.5043H17.5434H17.5825H17.6215H17.6606H17.6997H17.7388H17.7778H17.8169H17.856H17.8951H17.9341H17.9732H18.0123H18.0514H18.0905H18.1295H18.1686H18.2077H18.2468H18.2858H18.3249H18.364H18.4031H18.4422H18.4812H18.5203H18.5594H18.5985H18.6376H18.6766H18.7157H18.7548H18.7939H18.833H18.872H18.9111H18.9502H18.9893H19.0284H19.0675H19.1065H19.1456H19.1847H19.2238H19.2629H19.302H19.341H19.3801H19.4192H19.4583H19.4974H19.5365H19.5755H19.6146H19.6537H19.6928H19.7319H19.771H19.81H19.8491H19.8882H19.9273H19.9664H20.0055H20.0446H20.0836H20.1227H20.1618H20.2009H20.24H20.2791H20.3182H20.3572H20.3963H20.4354H20.4745H20.5136H20.5527H20.5918H20.6308H20.6699H20.709H20.7481H20.7872H20.8263H20.8654H20.9044H20.9435H20.9826H21.0217H21.0608H21.0999H21.139H21.178ZM11.2043 26.9486H11.1842H11.1641H11.144H11.1238H11.1037H11.0836H11.0635H11.0434H11.0233H11.0032H10.9831H10.9629H10.9428H10.9227H10.9026H10.8825H10.8624H10.8423H10.8222H10.802H10.7819H10.7618H10.7417H10.7216H10.7015H10.6814H10.6613H10.6411H10.621H10.6009H10.5808H10.5607H10.5406H10.5205H10.5004H10.4802H10.4601H10.44H10.4199H10.3998H10.3797H10.3596H10.3395H10.3193H10.2992H10.2791H10.259H10.2389H10.2188H10.1987H10.1786H10.1584H10.1383H10.1182H10.0981H10.078H10.0579H10.0378H10.0177H9.99754H9.97743H9.95732H9.9372H9.91709H9.89698H9.87687H9.85675H9.83664H9.81653H9.79642H9.7763H9.75619H9.73608H9.71597H9.69585H9.67574H9.65563H9.63552H9.6154H9.59529H9.57518H9.55507H9.53495H9.51484H9.49473H9.47462H9.4545H9.43439H9.41428H9.39417H9.37405H9.35394H9.33383H9.31372H9.2936H9.27349H9.25338H9.23327H9.21315H9.19304H9.17293H9.15282H9.1327H9.11259H9.09248H9.07237H9.05225H9.03214H9.01203H8.99192H8.9718H8.95169H8.93158H8.91147H8.89135H8.87124H8.85113H8.83102H8.81091H8.79079H8.77068H8.75057H8.73046H8.71034H8.69023H8.67012H8.65001H8.62989H8.60978H8.58967H8.56956H8.54944H8.52933H8.50922H8.48911H8.46899H8.44888H8.42877H8.40866H8.38854H8.36843H8.34832H8.32821H8.30809H8.28798H8.26787H8.24776H8.22764H8.20753H8.18742H8.16731H8.14719H8.12708H8.10697H8.08686H8.06674H8.04663H8.02652H8.00641H7.98629H7.96618H7.94607H7.92596H7.90584H7.88573H7.86562H7.84551H7.82539H7.80528H7.78517H7.76506H7.74494H7.72483H7.70472H7.68461H7.66449H7.64438H7.62427H7.60416H7.58404H7.56393H7.54382H7.52371H7.50359H7.48348H7.46337H7.44326H7.42314H7.40303H7.38292H7.36281H7.3427H7.32258H7.30247H7.28236H7.26225H7.24213H7.22202H7.20191H7.1818H7.16168H7.14157H7.12146H7.10135H7.08123H7.06112H7.04101H7.0209H7.00078H6.98067H6.96056H6.94045H6.92033H6.90022H6.88011H6.86H6.83988H6.81977H6.79966H6.77955H6.75943H6.73932H6.71921H6.6991H6.67898H6.65887H6.63876H6.61865H6.59853H6.57842H6.55831H6.5382H6.51808H6.49797H6.47786H6.45775H6.43763H6.41752H6.39741H6.3773H6.35718H6.33707H6.31696H6.29685H6.27673H6.25662H6.23651H6.2164H6.19628H6.17617H6.15606H6.13595H6.11583H6.09572H6.07561H6.0555H6.03538H6.01527H5.99516H5.97505H5.95494H5.93482H5.91471H5.8946H5.87449H5.85437H5.83426H5.81415H5.79403H5.77392H5.75381H5.7337H5.71359H5.69347H5.67336H5.65325H5.63314H5.61302H5.59291H5.5728H5.55269H5.53257H5.51246H5.49235H5.47224H5.45212H5.43201H5.4119H5.39179H5.37167H5.35156H5.33145H5.31134H5.29122H5.27111H5.251H5.23089H5.21077H5.19066H5.17055H5.15044H5.13032H5.11021H5.0901H5.06999H5.04987H5.02976H5.00965H4.98954H4.96942H4.94931H4.9292H4.90909H4.88897H4.86886H4.84875H4.82864H4.80852H4.78841H4.7683H4.74819H4.72807H4.70796H4.68785H4.66774H4.64762H4.62751H4.6074H4.58729H4.56717H4.54706H4.52695H4.50684H4.48672H4.46661H4.4465H4.42639H4.40627H4.38616H4.36605H4.34594H4.32583H4.30571H4.2856H4.26549H4.24538H4.22526H4.20515H4.18504H4.16493H4.14481H4.1247H4.10459H4.08448H4.06436H4.04425H4.02414H4.00403H3.98391H3.9638H3.94369H3.92358H3.90346H3.88335H3.86324H3.84313H3.82301H3.8029H3.78279H3.76268H3.74256H3.72245H3.70234H3.68223H3.66211H3.642H3.62189H3.60178H3.58166H3.56155H3.54144H3.52133H3.50121H3.4811H3.46099H3.44088H3.42076H3.40065H3.38054H3.36043H3.34031H3.3202H3.30009H3.27998H3.25986H3.23975H3.21964H3.19953H3.17941H3.1593H3.13919H3.11908H3.09896H3.07885H3.05874H3.03863H3.01851H2.9984H2.97829H2.95818H2.93807H2.91795H2.89784H2.87773H2.85762H2.8375H2.81739H2.79728H2.77717H2.75705H2.73694H2.71683H2.69672H2.6766H2.65649H2.63638H2.61627H2.59615H2.57604H2.55593H2.53582H2.5157H2.49559H2.47548H2.45537H2.43525H2.41514H2.39503H2.37492H2.3548H2.33469H2.31458H2.29447H2.27435H2.25424H2.23413H2.21402H2.1939H2.17379H2.15368H2.13357H2.11345H2.09334H2.07323H2.05312H2.033H2.01289H1.99278H1.97267H1.95255H1.93244H1.91233H1.89222H1.8721H1.85199H1.83188H1.81177H1.79165H1.77154H1.75143H1.73132H1.7112H1.69109H1.67098H1.65087H1.63075H1.61064H1.59053H1.57042H1.55031H1.53019H1.51008H1.48997H1.46986H1.44974H1.42963H1.40952H1.38941H1.36929H1.34918H1.32907H1.30896H1.28884H1.26873H1.24862H1.22851H1.20839H1.18828H1.16817H1.14806H1.12794H1.10783H1.08772H1.06761H1.04749H1.02738H1.00727H0.987156H0.967043H0.946931H0.926819H0.906706H0.906326H0.905944H0.905561H0.905176H0.90479H0.904403H0.904014H0.903623H0.903231H0.902838H0.902443H0.902047H0.90165H0.901251H0.90085H0.900449H0.900045H0.899641H0.899235H0.898828H0.898419H0.898009H0.897598H0.897185H0.896771H0.896356H0.895939H0.895521H0.895101H0.894681H0.894259H0.893835H0.893411H0.892985H0.892558H0.892129H0.891699H0.891268H0.890836H0.890403H0.889968H0.889532H0.889095H0.888656H0.888216H0.887776H0.887333H0.88689H0.886446H0.886H0.885553H0.885105H0.884655H0.884205H0.883753H0.8833H0.882846H0.882391H0.881935H0.881477H0.881019H0.880559H0.880098H0.879636H0.879173H0.878709H0.878244H0.877778H0.87731H0.876842H0.876372H0.875901H0.87543H0.874957H0.874483H0.874008H0.873532H0.873055H0.872577H0.872098H0.871618H0.871137H0.870655H0.870172H0.869688H0.869203H0.868717H0.86823H0.867742H0.867253H0.866763H0.866272H0.86578H0.865287H0.864794H0.864299H0.863803H0.863307H0.86281H0.862311H0.861812H0.861312H0.860811H0.860309H0.859806H0.859303H0.858798H0.858293H0.857786H0.857279H0.856771H0.856263H0.855753H0.855243H0.854731H0.854219H0.853706H0.853193H0.852678H0.852163H0.851647H0.85113H0.850612H0.850094H0.849575H0.849055H0.848534H0.848013H0.847491H0.846968H0.846444H0.84592H0.845395H0.844869H0.844343H0.843815H0.843287H0.842759H0.84223H0.8417H0.841169H0.840638H0.840106H0.839573H0.83904H0.838506H0.837972H0.837437H0.836901H0.836364H0.835827H0.83529H0.834752H0.834213H0.833673H0.833133H0.832593H0.832052H0.83151H0.830968H0.830425H0.829882H0.829338H0.828793H0.828248H0.827703H0.827157H0.82661H0.826063H0.825516H0.824968H0.824419H0.82387H0.82332H0.82277H0.82222H0.821669H0.821118H0.820566H0.820014H0.819461H0.818908H0.818354H0.8178H0.817246H0.816691H0.816136H0.81558H0.815024H0.814467H0.813911H0.813353H0.812796H0.812238H0.81168H0.811121H0.810562H0.810003H0.809443H0.808883H0.808323H0.807762H0.807201H0.80664H0.806078H0.805517H0.804955H0.804392H0.803829H0.803266H0.802703H0.80214H0.801576H0.801012H0.800448H0.799883H0.799319H0.798754H0.798189H0.797623H0.797058H0.796492H0.795926H0.79536H0.794793H0.794227H0.79366H0.793093H0.792526H0.791959H0.791392H0.790824H0.790257H0.789689H0.789121H0.788553H0.787985H0.787417H0.786848H0.78628H0.785711H0.785143H0.784574H0.784005H0.783436H0.782867H0.782298H0.781729H0.78116H0.780591H0.780022H0.779453H0.778884H0.778315H0.777745H0.777176H0.776607H0.776038H0.775468H0.774899H0.77433H0.773761H0.773192H0.772623H0.772054H0.771485H0.770916H0.770347H0.769778H0.76921H0.768641H0.768072H0.767504H0.766936H0.766367H0.765799H0.765231H0.764663H0.764096H0.763528H0.762961H0.762393H0.761826H0.761259H0.760692H0.760125H0.759559H0.758992H0.758426H0.75786H0.757295H0.756729H0.756164H0.755598H0.755034H0.754469H0.753904H0.75334H0.752776H0.752212H0.751649H0.751086H0.750523H0.74996H0.749398H0.748836H0.748274H0.747712H0.747151H0.74659H0.746029H0.745469H0.744909H0.744349H0.74379H0.743231H0.742672H0.742114H0.741556H0.740999H0.740442H0.739885H0.739328H0.738772H0.738217H0.737661H0.737107H0.736552H0.735998H0.735445H0.734891H0.734339H0.733786H0.733235H0.732683H0.732132H0.731582H0.731032H0.730482H0.729933H0.729385H0.728837H0.728289H0.727742H0.727195H0.726649H0.726104H0.725559H0.725014H0.724471H0.723927H0.723384H0.722842H0.7223H0.721759H0.721219H0.720679H0.720139H0.7196H0.719062H0.718525H0.717988H0.717451H0.716916H0.71638H0.715846H0.715312H0.714779H0.714246H0.713714H0.713183H0.712652H0.712122H0.711593H0.711065H0.710537H0.71001H0.709483H0.708957H0.708432H0.707908H0.707384H0.706861H0.706339H0.705818H0.705297H0.704777H0.704258H0.70374H0.703222H0.702705H0.702189H0.701674H0.701159H0.700646H0.700133H0.699621H0.699109H0.698599H0.698089H0.697581H0.697073H0.696566H0.696059H0.695554H0.69505H0.694546H0.694043H0.693541H0.69304H0.69254H0.692041H0.691543H0.691045H0.690549H0.690053H0.689559H0.689065H0.688572H0.68808H0.687589H0.687099H0.68661H0.686122H0.685635H0.685149H0.684664H0.68418H0.683697H0.683215H0.682734H0.682254H0.681775H0.681297H0.68082H0.680344H0.679869H0.679395H0.678922H0.678451H0.67798H0.67751H0.677042H0.676575H0.676108H0.675643H0.675179H0.674716H0.674254H0.673793H0.673333H0.672875H0.672417H0.671961H0.671506H0.671052H0.670599H0.670147H0.669697H0.669248H0.668799H0.668352H0.667907H0.667462H0.667019H0.666577H0.666136H0.665696H0.665257H0.66482H0.664384H0.663949H0.663516H0.663084H0.662653H0.662223H0.661794H0.661367H0.660941H0.660517H0.660093H0.659671H0.659251H0.658831H0.658413H0.657997H0.657581H0.657167H0.656754H0.656343H0.655933H0.655524H0.655117H0.654711H0.654307H0.653904H0.653502H0.653101H0.652702H0.652305H0.651909H0.651514H0.651121H0.650729H0.650338H0.649949H0.649562H0.649176H0.648791H0.648408H0.648026H0.647646C0.564481 26.9486 0.535129 26.9233 0.528675 26.917C0.522971 26.9114 0.5 26.8866 0.5 26.8118C0.5 24.3068 1.2432 21.9961 2.79043 19.9866C4.52772 17.7913 6.74678 16.4598 9.53018 16.0338C14.8597 15.2421 19.8013 18.2836 21.4115 23.3256C21.7247 24.4363 21.9086 25.5334 21.9086 26.6207C21.9086 26.8356 21.874 26.9029 21.8671 26.9143C21.8521 26.9233 21.7931 26.9486 21.6314 26.9486H21.6109H21.5904H21.5699H21.5494H21.5289H21.5084H21.488H21.4675H21.447H21.4265H21.406H21.3855H21.365H21.3445H21.324H21.3035H21.283H21.2625H21.2421H21.2216H21.2011H21.1806H21.1601H21.1396H21.1191H21.0986H21.0781H21.0576H21.0371H21.0167H20.9962H20.9757H20.9552H20.9347H20.9142H20.8937H20.8732H20.8527H20.8322H20.8118H20.7913H20.7708H20.7503H20.7298H20.7093H20.6888H20.6683H20.6478H20.6273H20.6069H20.5864H20.5659H20.5454H20.5249H20.5044H20.4839H20.4634H20.443H20.4225H20.402H20.3815H20.361H20.3405H20.32H20.2996H20.2791H20.2586H20.2381H20.2176H20.1971H20.1766H20.1562H20.1357H20.1152H20.0947H20.0742H20.0537H20.0333H20.0128H19.9923H19.9718H19.9513H19.9308H19.9104H19.8899H19.8694H19.8489H19.8284H19.808H19.7875H19.767H19.7465H19.726H19.7056H19.6851H19.6646H19.6441H19.6236H19.6032H19.5827H19.5622H19.5417H19.5213H19.5008H19.4803H19.4598H19.4394H19.4189H19.3984H19.3779H19.3575H19.337H19.3165H19.296H19.2756H19.2551H19.2346H19.2141H19.1937H19.1732H19.1527H19.1323H19.1118H19.0913H19.0708H19.0504H19.0299H19.0094H18.989H18.9685H18.948H18.9276H18.9071H18.8866H18.8662H18.8457H18.8252H18.8048H18.7843H18.7639H18.7434H18.7229H18.7025H18.682H18.6615H18.6411H18.6206H18.6002H18.5797H18.5592H18.5388H18.5183H18.4979H18.4774H18.4569H18.4365H18.416H18.3956H18.3751H18.3547H18.3342H18.3138H18.2933H18.2728H18.2524H18.2319H18.2115H18.191H18.1706H18.1501H18.1297H18.1092H18.0888H18.0683H18.0479H18.0274H18.007H17.9866H17.9661H17.9457H17.9252H17.9048H17.8843H17.8639H17.8434H17.823H17.8026H17.7821H17.7617H17.7412H17.7208H17.7004H17.6799H17.6595H17.639H17.6186H17.5982H17.5777H17.5573H17.5369H17.5164H17.496H17.4756H17.4551H17.4347H17.4143H17.3938H17.3734H17.353H17.3326H17.3121H17.2917H17.2713H17.2509H17.2304H17.21H17.1896H17.1692H17.1487H17.1283H17.1079H17.0875H17.067H17.0466H17.0262H17.0058H16.9854H16.965H16.9445H16.9241H16.9037H16.8833H16.8629H16.8425H16.8221H16.8016H16.7812H16.7608H16.7404H16.72H16.6996H16.6792H16.6588H16.6384H16.618H16.5976H16.5772H16.5568H16.5364H16.516H16.4956H16.4752H16.4548H16.4344H16.414H16.3936H16.3732H16.3528H16.3324H16.312H16.2916H16.2712H16.2508H16.2304H16.21H16.1896H16.1692H16.1488H16.1285H16.1081H16.0877H16.0673H16.0469H16.0265H16.0061H15.9858H15.9654H15.945H15.9246H15.9042H15.8839H15.8635H15.8431H15.8227H15.8024H15.782H15.7616H15.7412H15.7209H15.7005H15.6801H15.6598H15.6394H15.619H15.5987H15.5783H15.5579H15.5376H15.5172H15.4968H15.4765H15.4561H15.4358H15.4154H15.395H15.3747H15.3543H15.334H15.3136H15.2933H15.2729H15.2526H15.2322H15.2119H15.1915H15.1712H15.1508H15.1305H15.1101H15.0898H15.0694H15.0491H15.0288H15.0084H14.9881H14.9677H14.9474H14.9271H14.9067H14.8864H14.8661H14.8457H14.8254H14.8051H14.7847H14.7644H14.7441H14.7238H14.7034H14.6831H14.6628H14.6425H14.6221H14.6018H14.5815H14.5612H14.5409H14.5205H14.5002H14.4799H14.4596H14.4393H14.419H14.3987H14.3783H14.358H14.3377H14.3174H14.2971H14.2768H14.2565H14.2362H14.2159H14.1956H14.1753H14.155H14.1347H14.1144H14.0941H14.0738H14.0535H14.0332H14.0129H13.9927H13.9724H13.9521H13.9318H13.9115H13.8912H13.8709H13.8507H13.8304H13.8101H13.7898H13.7695H13.7493H13.729H13.7087H13.6884H13.6682H13.6479H13.6276H13.6074H13.5871H13.5668H13.5466H13.5263H13.506H13.4858H13.4655H13.4452H13.425H13.4047H13.3845H13.3642H13.344H13.3237H13.3035H13.2832H13.263H13.2427H13.2225H13.2022H13.182H13.1617H13.1415H13.1212H13.101H13.0808H13.0605H13.0403H13.0201H12.9998H12.9796H12.9594H12.9391H12.9189H12.8987H12.8785H12.8582H12.838H12.8178H12.7976H12.7773H12.7571H12.7369H12.7167H12.6965H12.6763H12.656H12.6358H12.6156H12.5954H12.5752H12.555H12.5348H12.5146H12.4944H12.4742H12.454H12.4338H12.4136H12.3934H12.3732H12.353H12.3328H12.3126H12.2924H12.2723H12.2521H12.2319H12.2117H12.1915H12.1713H12.1512H12.131H12.1108H12.0906H12.0705H12.0503H12.0301H12.0099H11.9898H11.9696H11.9494H11.9293H11.9091H11.889H11.8688H11.8486H11.8285H11.8083H11.7882H11.768H11.7479H11.7277H11.7076H11.6874H11.6673H11.6471H11.627H11.6068H11.5867H11.5666H11.5464H11.5263H11.5061H11.486H11.4659H11.4457H11.4256H11.4055H11.3854H11.3652H11.3451H11.325H11.3049H11.2847H11.2646H11.2445H11.2244H11.2043ZM21.8714 26.9112C21.8715 26.9113 21.8706 26.9121 21.8686 26.9134C21.8702 26.9118 21.8713 26.9112 21.8714 26.9112Z" stroke="#EBA900"/>
<path d="M17.6991 6.88231C17.6968 10.3569 14.8177 13.2561 11.2045 13.2561C7.58686 13.2561 4.70996 10.4152 4.70996 6.87807C4.70996 3.40164 7.58989 0.5 11.2045 0.5C14.7513 0.5 17.6368 3.33587 17.6991 6.88231ZM11.2045 13.0461C14.6425 13.0461 17.4686 10.2863 17.4686 6.94175C17.4686 3.48441 14.722 0.710031 11.2693 0.710031C7.76834 0.710031 4.94335 3.46704 4.94049 6.87288C4.87251 10.2925 7.77441 13.0461 11.2045 13.0461Z" stroke="#EBA900"/>
<path d="M11.5377 16.6761L11.5377 16.6761L11.5453 16.6759C13.8249 16.5996 15.5534 17.1816 16.8732 18.0775C18.1991 18.9776 19.1396 20.2133 19.8049 21.4797C20.4705 22.7465 20.8526 24.0288 21.0679 24.9986C21.1621 25.423 21.2239 25.7852 21.2635 26.0569H1.74449C1.75936 25.7978 1.78955 25.4476 1.8502 25.0344C1.98585 24.1103 2.272 22.8838 2.87043 21.6575C3.4677 20.4336 4.37228 19.217 5.74509 18.2936C7.11568 17.3718 8.9824 16.7223 11.5377 16.6761Z" stroke="#EBA900"/>
<path d="M16.4685 6.87806C16.4685 9.7244 14.1197 12.0461 11.2045 12.0461C8.28928 12.0461 5.94043 9.7244 5.94043 6.87806C5.94043 4.03172 8.28928 1.71002 11.2045 1.71002C14.1197 1.71002 16.4685 4.03172 16.4685 6.87806Z" stroke="#EBA900"/>
</svg>
