<svg width="18" height="21" viewBox="0 0 18 21" fill="none" xmlns="http://www.w3.org/2000/svg">
<path d="M14.2016 18.8721H1.82122C1.37187 18.8721 1 18.5083 1 18.0687V1.80341C1 1.36381 1.37187 1 1.82122 1H14.2016C14.6509 1 15.0228 1.36381 15.0228 1.80341V18.0687C15.0383 18.5083 14.6664 18.8721 14.2016 18.8721Z" stroke="#AEB2B4" stroke-width="2" stroke-miterlimit="10"/>
<path d="M3.26666 4.39996H9.24765" stroke="#AEB2B4" stroke-miterlimit="10" stroke-linecap="round"/>
<path d="M3.26666 7.64392H13.3538" stroke="#AEB2B4" stroke-miterlimit="10" stroke-linecap="round"/>
<path d="M3.26666 10.9484H12.9819" stroke="#AEB2B4" stroke-miterlimit="10" stroke-linecap="round"/>
<path d="M14.6 20.2666C16.4778 20.2666 18 18.7444 18 16.8666C18 14.9888 16.4778 13.4666 14.6 13.4666C12.7222 13.4666 11.2 14.9888 11.2 16.8666C11.2 18.7444 12.7222 20.2666 14.6 20.2666Z" fill="#AEB2B4"/>
<path d="M14.4982 15.1733V18.4021" stroke="white" stroke-miterlimit="10" stroke-linecap="round"/>
<path d="M12.7008 16.7953H16.3111" stroke="white" stroke-miterlimit="10" stroke-linecap="round"/>
</svg>
