<svg width="27" height="21" viewBox="0 0 27 21" fill="none" xmlns="http://www.w3.org/2000/svg">
<path d="M23.3438 21H3.65625C2.72235 21.0001 1.82382 20.6666 1.14499 20.0679C0.466163 19.4693 0.0584985 18.6509 0.00562515 17.7807L1.91235e-08 17.5875V2.3625C-7.87746e-05 1.76387 0.243332 1.18753 0.681041 0.749959C1.11875 0.31239 1.71811 0.0462232 2.358 0.00525014L2.53125 1.78486e-08H19.9688C20.6101 -7.3523e-05 21.2276 0.22711 21.6965 0.635638C22.1653 1.04417 22.4505 1.60357 22.4944 2.2008L22.5 2.3625V3.15H24.4688C25.1101 3.14993 25.7276 3.37711 26.1965 3.78564C26.6653 4.19416 26.9505 4.75357 26.9944 5.3508L27 5.5125V17.5875C27.0001 18.4591 26.6428 19.2978 26.0014 19.9313C25.36 20.5649 24.4832 20.9454 23.5508 20.9947L23.3438 21H3.65625H23.3438ZM3.65625 19.425H23.3438C23.838 19.425 24.3142 19.2514 24.6777 18.9388C25.0412 18.6262 25.2654 18.1974 25.3057 17.7376L25.3125 17.5875V5.5125C25.3125 5.3222 25.2387 5.13834 25.1046 4.99492C24.9706 4.8515 24.7855 4.75823 24.5835 4.73235L24.4688 4.725H22.5V16.0125C22.5 16.2028 22.4262 16.3867 22.2921 16.5301C22.1581 16.6735 21.973 16.7668 21.771 16.7927L21.6562 16.8C21.4524 16.8 21.2554 16.7311 21.1017 16.606C20.948 16.4809 20.8481 16.3081 20.8204 16.1196L20.8125 16.0125V2.3625C20.8125 2.1722 20.7387 1.98834 20.6046 1.84492C20.4706 1.7015 20.2855 1.60823 20.0835 1.58235L19.9688 1.575H2.53125C2.32736 1.57501 2.13037 1.64392 1.9767 1.76901C1.82304 1.89409 1.7231 2.06687 1.69537 2.2554L1.6875 2.3625V17.5875C1.68752 18.0486 1.87332 18.4929 2.20801 18.8322C2.54271 19.1714 3.00184 19.3808 3.49425 19.4187L3.65625 19.425H23.3438H3.65625ZM9.27675 9.4542C10.053 9.4542 10.683 10.0422 10.683 10.7667V14.4375C10.683 15.162 10.053 15.75 9.27675 15.75H5.34375C4.5675 15.75 3.9375 15.162 3.9375 14.4375V10.7667C3.9375 10.0422 4.5675 9.4542 5.34375 9.4542H9.27675ZM13.7812 14.175H17.7143C17.928 14.1751 18.1338 14.2509 18.29 14.3871C18.4462 14.5233 18.5412 14.7098 18.5558 14.9088C18.5704 15.1079 18.5034 15.3047 18.3685 15.4595C18.2336 15.6142 18.0408 15.7155 17.829 15.7426L17.7143 15.75H13.7812C13.5675 15.7499 13.3617 15.6741 13.2055 15.5379C13.0493 15.4017 12.9543 15.2152 12.9397 15.0162C12.9251 14.8171 12.9921 14.6203 13.127 14.4655C13.2619 14.3108 13.4547 14.2095 13.6665 14.1823L13.7812 14.175H17.7143H13.7812ZM8.99662 11.0292H5.625V14.175H8.99662V11.0292ZM13.7812 9.4542H17.7143C17.928 9.45426 18.1338 9.53006 18.29 9.66627C18.4462 9.80249 18.5412 9.98896 18.5558 10.188C18.5704 10.3871 18.5034 10.5839 18.3685 10.7387C18.2336 10.8934 18.0408 10.9947 17.829 11.0218L17.7143 11.0292H13.7812C13.566 11.0312 13.358 10.9564 13.1999 10.82C13.0418 10.6835 12.9455 10.4959 12.9309 10.2954C12.9162 10.0949 12.9842 9.89675 13.121 9.74154C13.2577 9.58633 13.4529 9.48579 13.6665 9.4605L13.7812 9.4542H17.7143H13.7812ZM4.77675 4.72185H17.7143C17.928 4.72191 18.1338 4.79771 18.29 4.93392C18.4462 5.07014 18.5412 5.25661 18.5558 5.45567C18.5704 5.65473 18.5034 5.85154 18.3685 6.00631C18.2336 6.16109 18.0408 6.2623 17.829 6.2895L17.7143 6.29685H4.77675C4.56307 6.29652 4.35748 6.22054 4.20149 6.08424C4.0455 5.94795 3.95072 5.76148 3.9363 5.5625C3.92188 5.36352 3.98888 5.16685 4.12378 5.01218C4.25869 4.85751 4.45144 4.75638 4.66313 4.7292L4.77675 4.72185H17.7143H4.77675Z" fill="#EBA900"/>
</svg>
