<svg width="15" height="11" viewBox="0 0 15 11" fill="none" xmlns="http://www.w3.org/2000/svg">
<path d="M14.9702 5.33C14.3821 3.80882 13.3612 2.49331 12.0335 1.54604C10.7059 0.598778 9.12979 0.0612865 7.5 0C5.87021 0.0612865 4.2941 0.598778 2.96647 1.54604C1.63884 2.49331 0.617885 3.80882 0.0297881 5.33C-0.00992938 5.43985 -0.00992938 5.56015 0.0297881 5.67C0.617885 7.19118 1.63884 8.50669 2.96647 9.45396C4.2941 10.4012 5.87021 10.9387 7.5 11C9.12979 10.9387 10.7059 10.4012 12.0335 9.45396C13.3612 8.50669 14.3821 7.19118 14.9702 5.67C15.0099 5.56015 15.0099 5.43985 14.9702 5.33ZM7.5 10C4.84993 10 2.04985 8.035 1.03482 5.5C2.04985 2.965 4.84993 1 7.5 1C10.1501 1 12.9502 2.965 13.9652 5.5C12.9502 8.035 10.1501 10 7.5 10Z" fill="#999999"/>
<path d="M7.50003 2.5C6.90666 2.5 6.32663 2.67595 5.83327 3.00559C5.33991 3.33524 4.95538 3.80377 4.72831 4.35195C4.50124 4.90013 4.44183 5.50333 4.55759 6.08527C4.67335 6.66721 4.95908 7.20176 5.37864 7.62132C5.79821 8.04088 6.33278 8.3266 6.91474 8.44236C7.4967 8.55811 8.09991 8.4987 8.64811 8.27164C9.1963 8.04458 9.66485 7.66006 9.9945 7.16671C10.3242 6.67336 10.5001 6.09334 10.5001 5.5C10.5001 4.70435 10.184 3.94129 9.62141 3.37868C9.05878 2.81607 8.2957 2.5 7.50003 2.5ZM7.50003 7.5C7.10445 7.5 6.71776 7.3827 6.38885 7.16294C6.05995 6.94318 5.80359 6.63082 5.65221 6.26537C5.50083 5.89991 5.46123 5.49778 5.5384 5.10982C5.61557 4.72186 5.80606 4.36549 6.08577 4.08579C6.36548 3.80608 6.72186 3.6156 7.10983 3.53843C7.49781 3.46126 7.89995 3.50087 8.26541 3.65224C8.63088 3.80362 8.94324 4.05996 9.16301 4.38886C9.38278 4.71776 9.50008 5.10444 9.50008 5.5C9.50008 6.03043 9.28936 6.53914 8.91428 6.91421C8.53919 7.28929 8.03047 7.5 7.50003 7.5Z" fill="#999999"/>
</svg>
