<svg width="18" height="18" viewBox="0 0 18 18" fill="none" xmlns="http://www.w3.org/2000/svg">
<g clip-path="url(#clip0_2145_7843)">
<path d="M17.014 16.8449C14.9164 16.8449 12.8188 16.8449 10.7212 16.8449C11.4025 16.0986 12.0838 15.37 12.765 14.6237C12.8009 14.6237 12.8367 14.606 12.8726 14.606H12.8905C12.9622 14.5704 13.016 14.5171 13.0519 14.4283C14.3965 11.0166 15.7411 7.60499 17.0857 4.21111C17.283 3.73135 17.4622 3.25158 17.6595 2.75405C17.6774 2.71851 17.6774 2.68298 17.6774 2.66521C17.9463 1.75899 17.5877 0.746155 16.7092 0.355237C15.8487 -0.0179123 14.8089 0.426313 14.4503 1.3503C13.1057 4.76195 11.761 8.1736 10.4164 11.5675C10.2192 12.0472 10.022 12.527 9.84272 13.0245C9.78893 13.1489 9.82479 13.2911 9.8965 13.3799C9.8965 13.6465 9.8965 13.9308 9.87857 14.1973C9.87857 14.3217 9.87857 14.4638 9.87857 14.5882C9.87857 15.3345 9.86064 16.0986 9.84272 16.8449C6.83076 16.8449 3.81881 16.8449 0.806859 16.8449C0.358651 16.8449 0.358651 17.7511 0.806859 17.7511C6.20327 17.7511 11.6176 17.7511 17.014 17.7511C17.4622 17.7511 17.4622 16.8449 17.014 16.8449ZM17.1395 2.16768C16.4941 1.88337 15.8308 1.59907 15.1853 1.31476C15.8128 0.426313 17.2292 1.066 17.1395 2.16768ZM14.4503 3.05613C14.6116 2.66521 14.7551 2.29206 14.9164 1.90114C15.5977 2.20321 16.279 2.50529 16.9602 2.80736C15.6515 6.11239 14.3427 9.41743 13.034 12.7225C12.8905 13.0956 12.7292 13.4865 12.5857 13.8597C11.9045 13.5576 11.2232 13.2733 10.5419 12.9712C11.8507 9.66619 13.1594 6.36116 14.4503 3.05613ZM10.524 13.8241C11.026 14.0374 11.528 14.2506 12.03 14.4816C11.7431 14.8014 11.4563 15.1035 11.1694 15.4234C10.9363 15.3167 10.7212 15.2279 10.5061 15.1213C10.5061 14.6948 10.5061 14.2506 10.524 13.8241Z" fill="white" stroke="white" stroke-width="0.5" stroke-miterlimit="10"/>
</g>
<defs>
<clipPath id="clip0_2145_7843">
<rect width="18" height="18" fill="white"/>
</clipPath>
</defs>
</svg>
